<svg width="302" height="36" viewBox="0 0 302 36" fill="none" xmlns="http://www.w3.org/2000/svg">
<path d="M10.5999 10.1983C10.4674 10.1983 10.3349 10.1754 10.2115 10.1343C9.80944 9.98818 9.76375 9.73243 9.66781 9.17524C9.61755 8.90122 9.55815 8.55869 9.44393 8.12939C9.21549 7.31188 8.95049 6.72729 8.63067 6.33453C9.97392 6.60398 11.2441 7.12463 12.4 7.88733C12.7153 8.07915 13.2772 8.60436 13.3366 8.7231C13.2727 8.79618 12.8523 9.03366 12.3817 9.03366C12.1533 9.03366 11.9523 8.97886 11.7786 8.86925C11.1755 8.47191 10.5222 8.14309 9.83229 7.88733L9.75005 7.85536L9.76376 7.94213C9.87341 8.70027 10.2115 8.85098 10.6044 9.0291C10.6547 9.05193 10.7095 9.07934 10.7643 9.10674C11.1618 9.29855 11.6507 9.60912 11.7192 9.69589C11.6644 9.80093 11.1664 10.1983 10.5999 10.1983ZM39.3337 0.00456707C39.8866 3.69933 39.5393 7.25251 38.3331 10.285C36.8208 14.0985 34.084 16.5876 30.6254 17.3001C30.1685 17.3914 29.8898 17.7522 29.7664 17.9577C29.6157 18.1998 29.57 18.4007 29.5745 18.4555C29.6202 18.4692 29.7893 18.4921 30.0954 18.4921C30.3878 18.4921 30.6665 18.4692 30.8264 18.4418C34.678 17.702 37.73 14.9526 39.416 10.7098C39.6444 10.1343 39.85 9.50864 40.0328 8.84641V0.00456707H39.3337ZM7.80369 15.5783C8.26972 15.4824 8.57584 15.1079 8.71748 14.8932C8.85911 14.6786 8.90937 14.5096 8.90937 14.4639C8.8454 14.4319 8.53472 14.3863 8.14636 14.3863C7.95447 14.3863 7.78542 14.4 7.65292 14.4228C4.43641 15.0485 1.78644 17.0534 0 20.2276V22.9952C0.050258 22.8491 0.105085 22.712 0.159912 22.575C1.67222 18.7661 4.38615 16.277 7.80369 15.5783ZM8.25602 13.6007C8.73118 13.5916 9.07842 13.2902 9.2429 13.1075C9.43022 12.902 9.51247 12.7193 9.5216 12.6691C9.43022 12.6051 8.76773 12.4361 8.31084 12.4361C5.1583 12.4453 2.28902 13.8154 0 16.3912V18.2454C2.14282 15.286 5.06692 13.6418 8.25602 13.6007ZM31.0823 21.246C30.6848 21.246 30.2781 21.2186 29.8807 21.1684C29.8304 21.1638 29.7801 21.1592 29.7253 21.1592C29.0491 21.1592 28.5054 21.7393 28.4643 21.8489C28.5511 21.9402 29.2136 22.2508 29.6294 22.3056C30.0863 22.3695 30.5431 22.406 30.9818 22.4106H31.1051C34.3673 22.4106 37.4513 20.9172 40.0282 18.0856V16.2816C39.7769 16.6059 39.5302 16.9073 39.288 17.1859C36.9213 19.8439 34.084 21.246 31.0823 21.246ZM32.028 25.5391C30.9589 25.5391 29.9035 25.3792 28.8846 25.0641C28.7795 25.0321 28.6745 25.0138 28.5648 25.0138C27.9617 25.0138 27.4683 25.5025 27.418 25.603C27.5048 25.6943 28.1765 26.0597 28.5328 26.1693C29.6659 26.5347 30.7853 26.7265 31.8636 26.7402C31.9092 26.7402 31.9504 26.7448 31.9961 26.7448C34.0978 26.7448 36.2451 26.1602 38.3743 25.0093C38.9134 24.717 39.4708 24.3745 40.0373 23.9863V22.5613C39.3154 23.1094 38.5707 23.5935 37.826 23.9908C35.9116 25.0184 33.9653 25.5391 32.028 25.5391ZM31.6991 23.3606C30.7259 23.3606 29.7619 23.2098 28.8298 22.9176C28.711 22.881 28.5877 22.8628 28.4552 22.8628C27.8521 22.8628 27.3723 23.251 27.3221 23.3423C27.3952 23.4473 28.0074 23.8766 28.3821 23.9908C29.4603 24.3379 30.5386 24.5206 31.5894 24.5297H31.7128C34.3902 24.5297 37.1041 23.5021 39.5713 21.552C39.7266 21.4287 39.8866 21.2962 40.0328 21.1729V19.611C39.6398 19.9901 39.2423 20.3372 38.854 20.6432C36.6061 22.4243 34.1297 23.3606 31.6991 23.3606ZM6.44673 5.05118C9.01902 5.05118 11.3263 5.93719 13.1128 7.60874C13.3595 7.83709 13.7022 7.88733 13.9443 7.88733C14.319 7.88733 14.6159 7.77772 14.6753 7.73205C14.6342 7.61331 14.1682 6.99675 13.8895 6.74556C11.8289 4.88677 9.2429 3.90028 6.41018 3.90028C4.9527 3.90028 3.43582 4.15603 1.90523 4.66755C1.28386 4.87306 0.644216 5.12425 0 5.43025V6.71816C0.763008 6.33453 1.52601 6.01483 2.27075 5.76821C3.69625 5.29323 5.10347 5.05118 6.44673 5.05118ZM30.7487 15.2494C30.3238 15.4276 30.1228 15.834 30.0451 16.0578C29.9538 16.3181 29.94 16.5328 29.9538 16.5922C29.9538 16.5922 29.9675 16.5922 29.9857 16.5922C30.2005 16.5922 30.8812 16.4506 31.1828 16.3227C34.7511 14.8704 37.2137 11.6643 38.1138 7.29818C38.5844 5.01464 38.6027 2.55756 38.1732 0H36.999C37.4376 2.47992 37.4285 4.8548 36.9762 7.06526C36.1675 10.9975 33.9561 13.9022 30.7487 15.2494ZM27.1941 8.33034C26.9703 8.74137 27.0616 9.18438 27.1393 9.4173C27.2261 9.68219 27.3449 9.8466 27.3906 9.88314C27.5003 9.8192 27.9937 9.26202 28.1856 8.94232C27.7561 7.5448 28.3135 7.13833 29.1496 6.52178C29.2776 6.42587 29.4146 6.32539 29.5563 6.21578C30.863 5.19276 31.9138 5.13795 32.1103 5.13795H32.1286C32.4118 5.14252 32.6357 5.27953 32.7865 5.53529C33.2799 6.3802 32.9098 8.27096 32.2656 9.43557C31.7402 10.3901 31.4158 10.4358 31.0366 10.4906C30.7625 10.5317 30.4746 10.5728 30.0451 11.0158C29.6979 11.372 29.6613 11.847 29.6705 12.0982C29.6796 12.3585 29.739 12.5275 29.7664 12.564C29.8944 12.5457 30.534 12.1621 30.831 11.8744C33.7688 8.96059 34.2988 4.41179 33.8556 1.39752C33.7825 0.949951 33.6911 0.479542 33.586 0.00456707H32.3936C32.5261 0.543481 32.6357 1.07326 32.7042 1.57107C32.8276 2.42968 32.8687 3.61712 32.855 4.36155L32.8504 4.51227L32.7591 4.39352C32.6677 4.27478 32.5306 4.20627 32.3616 4.2017H32.3479C32.2336 4.19714 32.0829 4.188 31.859 4.30675L31.7813 4.34785L31.7859 4.25651C31.8133 2.76764 31.6488 1.37469 31.2879 0H30.0817C30.4975 1.50257 30.6848 3.30199 30.566 4.82283V4.85023L30.5431 4.86393C30.4609 4.9233 30.3513 4.98267 30.2325 5.05575C29.972 5.21103 29.6751 5.39371 29.5426 5.52615L29.4329 5.64033L29.4466 5.48505C29.6979 3.52121 29.5517 1.77659 28.9851 0.00456707H27.747C28.7613 2.95489 28.5694 5.83215 27.1941 8.33034ZM30.4518 19.2548C29.9583 19.273 29.6065 19.5927 29.442 19.7754C29.273 19.9672 29.1953 20.1271 29.1907 20.1773C29.2958 20.2458 30.0177 20.4148 30.3924 20.4148H30.4152C34.2394 20.3235 37.6569 18.1906 40.0282 14.4045V11.984C39.7495 12.5777 39.4434 13.1486 39.1098 13.6875C36.9807 17.1448 33.9059 19.1223 30.4518 19.2548ZM6.45587 2.82245C10.0059 2.82245 13.026 4.29305 14.954 6.96478C15.2419 7.36668 15.749 7.42606 16.0232 7.42606C16.2653 7.42606 16.4252 7.38495 16.4663 7.35755C16.4481 7.22511 16.0826 6.54918 15.8678 6.24775C13.7478 3.29286 10.4217 1.66241 6.49242 1.66241C5.75225 1.66241 4.98468 1.71722 4.21253 1.8314C2.82815 2.03691 1.40722 2.42511 0 2.9823V4.23824C1.46205 3.61255 2.93781 3.19238 4.38158 2.97773C5.08519 2.87725 5.78424 2.82245 6.45587 2.82245ZM1.51688 25.7902C2.3804 21.6159 4.74709 18.6473 8.18748 17.4416C8.63067 17.2864 8.85911 16.889 8.95963 16.6652C9.07385 16.4095 9.09213 16.204 9.08299 16.1537C9.06928 16.1492 9.04187 16.1446 8.97333 16.1446C8.69463 16.1446 8.16464 16.2222 7.84024 16.3318C3.98866 17.638 1.33869 20.9172 0.383788 25.5573C0.159912 26.6443 0.0365513 27.7998 0.0182756 29.0009L0.00913781 29.5078L0 29.4576V34.9883H1.99661C1.09197 31.7959 0.927488 28.6538 1.51688 25.7902ZM6.09949 11.509C6.15889 11.34 5.96242 11.098 5.70657 10.7874L5.62889 10.6961C4.39529 9.17524 5.0395 7.5448 5.85734 6.14271C3.96124 6.25232 2.02859 6.82777 0.123361 7.85536C0.0959471 7.86906 0.0685336 7.88733 0.0411202 7.90103C0.0274134 7.91017 0.0137067 7.9193 0 7.92387V9.26202C0.246721 9.1113 0.470597 8.98343 0.676198 8.87382C1.72705 8.3075 2.79617 7.88733 3.86073 7.62244L3.94754 7.5996L3.92926 7.68181C3.85159 7.98781 3.83788 8.31663 3.88357 8.67287L3.88814 8.71854L3.84245 8.73224C2.54031 9.09304 1.24731 9.69589 0 10.5271V11.9429C1.34326 10.9427 2.74591 10.2394 4.17598 9.85574L4.22167 9.84204L4.23995 9.88314C4.36331 10.1663 4.51408 10.4495 4.6877 10.7372L4.72425 10.7966L4.65572 10.8148C3.01091 11.2578 1.44377 12.089 0 13.2947V14.8475C1.65851 13.2445 3.50435 12.226 5.48269 11.815C5.85277 11.7419 6.05837 11.6415 6.09949 11.509ZM31.5483 32.2572C29.5928 32.1978 27.8201 31.7868 26.2895 31.0241C26.1296 30.9465 25.956 30.9054 25.7641 30.9054C25.2524 30.9054 24.8 31.1931 24.7406 31.2844C24.8046 31.394 25.4077 31.8873 25.7275 32.0517C27.3769 32.892 29.3232 33.3487 31.5118 33.4127C31.6077 33.4173 31.7036 33.4173 31.7996 33.4173C34.4496 33.4492 37.3006 32.8509 40.0236 31.7V30.435C37.2183 31.7 34.2759 32.3349 31.5483 32.2572ZM9.19721 21.1638C9.56272 20.8669 9.64039 20.4102 9.65867 20.1682C9.67695 19.8896 9.62669 19.6932 9.59927 19.6521C9.45764 19.6658 8.78144 20.0038 8.4936 20.2413C5.32735 22.8171 3.96124 26.7996 4.64201 31.458C4.81563 32.6409 5.12631 33.7872 5.56036 34.9929H6.79853C6.30966 33.7324 5.97156 32.5267 5.78881 31.2936C5.172 27.069 6.37819 23.4747 9.19721 21.1638ZM14.456 27.5714C14.4789 27.1101 14.2047 26.7493 14.0403 26.5803C13.8438 26.3703 13.6565 26.2698 13.6016 26.2561C13.5285 26.3611 13.3184 27.101 13.291 27.4709C13.0945 30.1198 13.8986 32.682 15.6211 34.9929H17.1106C15.1825 32.7368 14.2596 30.2066 14.456 27.5714ZM35.0801 4.1332C34.9658 8.03804 33.3941 11.2213 30.6482 13.0892C30.2599 13.3541 30.1411 13.7971 30.1045 14.0392C30.0634 14.3132 30.0954 14.5096 30.1182 14.5644C30.2599 14.5553 30.9772 14.2721 31.2696 14.0757C34.349 12.0388 36.1172 8.51759 36.2406 4.16973C36.2771 2.83158 36.1538 1.42949 35.8705 0.00456707H34.6917C34.9841 1.41122 35.1166 2.79961 35.0801 4.1332ZM10.0836 22.945C10.3212 22.6527 10.3212 22.269 10.2755 22.0041C10.2206 21.6707 10.0881 21.4241 10.0379 21.3785C9.93737 21.4196 9.4485 21.8854 9.13325 22.2645C6.61578 25.3107 6.02639 29.3982 7.47473 33.7643C7.6118 34.1754 7.77628 34.5499 7.95904 34.9883H9.22919C8.97333 34.4266 8.74946 33.9288 8.57584 33.3944C7.26913 29.4667 7.80369 25.7491 10.0836 22.945ZM12.9666 25.4112C13.2407 24.717 12.7929 23.9406 12.6833 23.8675C12.5736 23.9314 12.0848 24.5069 11.9386 24.8723C10.6181 28.1423 10.9791 31.6955 12.9483 34.9929H14.319C12.2218 31.8553 11.7375 28.4939 12.9666 25.4112ZM17.8507 32.2938C17.6131 31.9147 17.3984 31.8051 17.1288 31.6681C17.0237 31.6133 16.905 31.5539 16.7725 31.4717C16.4755 31.2799 16.1694 30.9784 15.9409 30.6542C16.1145 31.3118 16.3521 32.0882 16.8456 32.8966C17.3025 33.6456 17.8781 34.3124 18.5543 34.9929H20.2768C19.3082 34.1663 18.4949 33.3031 17.8507 32.2938ZM28.6151 34.1525C27.0342 33.8283 25.595 33.2711 24.3431 32.4993C24.1604 32.3851 23.9411 32.3257 23.7081 32.3257C23.242 32.3257 22.84 32.5449 22.776 32.618C22.8354 32.7322 23.3928 33.2757 23.6989 33.4675C24.7726 34.1434 26.0154 34.6138 27.3997 34.9883H40.0236V32.9514C37.4194 33.9607 34.6871 34.4996 32.1103 34.4996C30.9087 34.4996 29.7253 34.3809 28.6151 34.1525ZM20.3134 32.5404C19.957 32.5404 19.6646 32.6591 19.6097 32.7048C19.6417 32.8235 20.0758 33.4218 20.3636 33.7004C20.8571 34.18 21.4236 34.5727 22.045 34.9929H24.3614C23.1369 34.3946 22.0587 33.7141 21.1632 32.8555C20.8982 32.5952 20.5509 32.5404 20.3134 32.5404ZM11.3537 24.4293C11.6142 23.9817 11.5365 23.5158 11.468 23.2784C11.3949 23.018 11.2898 22.8719 11.2624 22.8582C11.1893 22.8673 10.6912 23.2738 10.3988 23.767C8.43877 27.0964 8.44791 31.0424 10.4125 34.9929H11.7192C11.7101 34.9746 11.6964 35.0157 11.6873 34.9929C9.69065 31.2981 9.57186 27.544 11.3537 24.4293ZM24.0233 6.29342C23.9502 6.70903 24.1467 7.06069 24.3249 7.27991C24.5122 7.50826 24.7132 7.64528 24.7772 7.66354C24.8549 7.56764 25.097 6.88257 25.1701 6.47154C25.5585 4.27478 25.2478 2.10085 24.2335 0.00456707H22.9176C24.0096 2.00494 24.3888 4.17887 24.0233 6.29342ZM22.3054 6.64509C22.2826 7.15203 22.575 7.54023 22.7532 7.72748C22.9451 7.933 23.1232 8.02891 23.1781 8.04261C23.2512 7.933 23.4705 7.1429 23.4933 6.7547C23.6395 4.40722 23.0182 2.07345 21.6977 0.00456707H20.2585C21.716 2.00951 22.4242 4.30675 22.3054 6.64509ZM25.6727 7.06069C25.5082 7.52196 25.6773 7.96497 25.7915 8.18419C25.9103 8.41711 26.0336 8.54499 26.0748 8.56782C26.1753 8.49932 26.6047 7.8919 26.7418 7.5174C27.6008 5.10598 27.5596 2.51189 26.6139 0.00456707H25.3666C26.358 2.37031 26.4631 4.80912 25.6727 7.06069ZM3.41297 28.7269C3.53633 24.4384 5.39131 21.0862 8.63523 19.2867C9.04187 19.0584 9.20178 18.6336 9.25661 18.3962C9.32514 18.1221 9.31143 17.9212 9.29316 17.8709C9.10126 17.8755 8.38851 18.0993 8.10067 18.2591C4.46839 20.2139 2.39411 23.9223 2.25247 28.6949C2.19308 30.7546 2.50376 32.8327 3.17539 34.9929H4.39072C3.68254 32.8372 3.35358 30.7729 3.41297 28.7269ZM6.94474 0.602853C12.0711 0.748999 15.4566 2.85899 17.0146 6.86431C17.2613 7.49913 18.0335 7.69551 18.2848 7.69551C18.3122 7.69551 18.3305 7.69551 18.3396 7.69095C18.3624 7.5585 18.2299 6.8095 18.102 6.46697C16.873 3.21522 14.3692 0.977353 10.8603 0.00456707H0V1.79943C2.19308 1.00019 4.37244 0.598286 6.47414 0.598286C6.63405 0.598286 6.7894 0.598286 6.94474 0.602853ZM18.8787 7.19314C19.0249 7.9467 19.8656 8.2801 20.0666 8.2801H20.0712C20.1169 8.15679 20.126 7.36212 20.0529 6.97848C19.5229 4.12406 18.0289 1.71722 15.7307 0.00456707H13.6702C16.5166 1.47516 18.2208 3.83177 18.8787 7.19314ZM21.6612 8.74137C21.7297 8.62719 21.8942 7.80056 21.8714 7.38495C21.7389 4.64471 20.7063 2.09629 18.8787 0.00456707H17.2431C19.3173 2.00494 20.5281 4.62187 20.656 7.38495C20.6971 8.21159 21.5104 8.7231 21.6612 8.74137ZM31.5757 27.9733C30.0725 27.9185 28.6836 27.6034 27.5596 27.0005C26.984 26.69 26.3626 26.5438 25.5082 27.1832C25.1427 27.4572 24.9874 27.5166 24.7224 27.5075C24.4802 27.5029 24.1147 27.1193 23.6944 26.8863C22.977 26.4844 22.8537 26.4114 22.0998 26.1465C21.5972 25.9638 21.812 24.2785 21.9993 23.9451C22.3694 23.2921 24.0462 22.9769 24.4482 22.2097C24.7178 21.6936 24.2106 21.1821 23.9822 20.8669C23.8862 21.9174 22.7943 22.3147 21.7023 22.3056C20.5966 22.2919 18.5726 21.6068 18.5498 21.0222C18.3944 21.2688 18.1888 21.6981 18.2436 22.1046C18.3579 23.0135 20.9119 23.018 21.3094 23.9406C21.4465 24.2557 21.3185 25.3061 21.2226 25.6304C21.1084 26.0277 20.8479 26.1008 20.3408 26.2652C18.2025 26.9594 17.9832 29.1379 15.187 26.5255C17.805 31.2616 18.6411 27.1558 21.1632 27.1878C23.3243 27.2152 24.7818 28.9004 25.9468 29.654C25.9971 29.6814 26.0473 29.7134 26.1022 29.7453C26.7464 30.1335 27.5003 30.4441 28.4552 30.7227C29.5106 31.0241 30.6391 31.184 31.8179 31.1977C32.6129 31.2022 33.4398 31.1474 34.2714 31.0287C36.1812 30.7455 38.1184 30.129 40.0191 29.1927V27.8911C38.0636 28.9233 36.0761 29.59 34.1023 29.8823C33.3759 29.9874 32.6631 30.0422 31.9824 30.0422C29.5197 30.0422 27.3312 29.3343 25.4854 27.9413C25.4488 27.9139 25.4442 27.882 25.4442 27.8637C25.4488 27.818 25.4854 27.7769 25.5585 27.7404C25.7504 27.6308 25.9605 27.5257 26.2392 27.5257C26.5134 27.5257 26.8241 27.6216 27.2078 27.8363C28.5785 28.5807 30.1137 28.9507 31.891 28.9689C33.3987 28.9872 34.9796 28.7269 36.5787 28.1971C37.7346 27.8135 38.8905 27.2882 40.0191 26.6397V25.2879C38.7763 26.0643 37.497 26.6717 36.2132 27.0964C34.4861 27.6719 32.9692 27.955 31.5757 27.9733ZM13.0397 20.5884C13.163 20.9766 13.3778 21.721 13.9078 21.6022C14.2641 20.4194 15.3333 19.8668 15.6211 18.6473C15.4612 18.3825 15.2008 18.3139 15.0043 18.1495C13.7341 17.3549 12.3086 16.0715 12.6422 14.4045C12.2767 14.5279 11.8472 14.6146 11.6736 14.9983C11.2806 16.5054 12.3772 17.807 13.5788 18.7296C14.3281 19.3552 12.7929 19.7115 13.0397 20.5884ZM25.3848 18.3551L25.3894 18.3596C27.1713 18.008 29.1953 15.7107 27.9023 14.094L27.8932 14.0848C26.4722 14.4365 23.8771 13.4226 23.0456 15.1672C22.4105 14.3086 21.3642 13.788 20.222 13.8702C19.3173 13.9387 18.6229 14.2447 18.0837 14.8886C17.8142 15.2129 17.6634 15.7564 17.2568 16.0395V16.035C16.7405 14.263 14.6708 14.4822 13.0991 14.336C13.0488 17.6015 16.5669 15.4276 17.5355 17.1037C17.5583 17.1356 17.5766 17.1859 17.5766 17.1859C18.2345 15.6742 19.363 15.2357 20.7611 15.2357H20.7748C21.6977 15.2677 22.0404 15.6239 22.2643 16.0213L23.4019 19.7206C23.5344 20.0357 23.5344 20.698 23.9593 20.223C24.4254 19.1954 23.6167 18.0719 23.5847 17.058V17.0215C23.5847 16.2816 24.1832 15.6788 24.928 15.6788C25.1792 15.6788 25.4168 15.7473 25.6179 15.8706H25.6224C26.3854 15.5737 26.8286 14.3726 27.651 14.7334C27.4637 16.3592 24.768 16.51 25.3848 18.3551ZM31.562 7.95127C31.9549 7.2114 31.3427 6.47611 31.2239 6.48524C29.9309 6.60398 30.1776 8.13395 29.1268 9.32139C28.5511 9.96991 28.8024 10.8514 28.9075 10.8833C29.0126 10.9153 29.7436 10.3398 30.0132 10.0476C30.6254 9.4036 31.1599 8.70027 31.562 7.95127ZM7.38792 11.4085C8.01843 11.4131 8.64894 11.4816 9.28402 11.6004C10.0973 11.7556 10.8374 11.2441 10.8237 11.1254C10.8146 11.0432 9.98306 10.7006 9.61298 10.623C8.94135 10.486 8.70377 10.4312 8.4205 10.148C8.06869 9.7918 8.05041 9.28485 8.05955 8.61806C8.06869 7.8919 7.85395 6.57201 7.3468 6.56745C6.60664 6.56288 6.465 7.45346 6.4513 8.54955C6.43759 9.87401 7.29654 10.0202 7.28741 10.8651C7.28284 11.1254 7.1412 11.404 7.38792 11.4085ZM76.6891 24.9636C79.3619 24.9636 80.9382 23.2053 80.9382 20.5016V18.1404C80.9382 10.8742 85.6168 6.17468 94.6084 6.17468H97.1807V16.1674H96.7512C93.626 16.1674 91.7437 18.1541 91.7437 21.4561V24.2283C91.7437 31.1748 86.4574 34.9929 78.64 34.9929H76.1454V24.9636H76.6891ZM95.9882 24.9636V34.9929H98.4828C106.3 34.9929 111.586 31.1748 111.586 24.2283V21.4561C111.586 18.1541 113.469 16.1674 116.594 16.1674H117.023V6.17011H114.456C105.46 6.17011 100.781 10.8696 100.781 18.1358V20.497C100.781 23.2007 99.2001 24.959 96.5273 24.959H95.9882V24.9636ZM60.5928 34.9929V24.9636H59.1034C56.6773 24.9636 54.7035 22.9906 54.7035 20.5655C54.7035 18.1404 56.6773 16.1674 59.1034 16.1674C61.7899 16.1674 63.1423 17.9257 63.1423 20.5655L63.1377 34.9929H73.6005V20.5609C73.6005 12.5731 67.099 6.0742 59.1034 6.0742C51.1124 6.0742 44.6062 12.5731 44.6062 20.5609C44.6062 28.5488 51.1078 34.9883 59.1034 34.9883H60.5928V34.9929ZM133.997 34.9929V24.9636H132.507C130.077 24.9636 128.103 22.9906 128.103 20.5655C128.103 18.1404 130.077 16.1674 132.507 16.1674C135.189 16.1674 136.542 17.9257 136.542 20.5655L136.537 34.9929H147V20.5609C147 12.5731 140.498 6.0742 132.507 6.0742C124.516 6.0742 118.01 12.5731 118.01 20.5609C118.01 28.5488 124.516 34.9883 132.507 34.9883H133.997V34.9929Z" fill="#0D2E68"/>
<line x1="167.5" y1="6" x2="167.5" y2="35" stroke="#A3A2A2"/>
<path d="M202.34 30.166H193.864L192.253 35H187.113L195.846 11.5391H200.326L209.107 35H203.967L202.34 30.166ZM195.169 26.2505H201.035L198.086 17.4688L195.169 26.2505ZM221.34 33.2275C220.19 34.624 218.6 35.3223 216.57 35.3223C214.701 35.3223 213.272 34.7852 212.284 33.7109C211.307 32.6367 210.807 31.063 210.786 28.9897V17.5654H215.442V28.8286C215.442 30.644 216.269 31.5518 217.924 31.5518C219.503 31.5518 220.588 31.0039 221.179 29.9082V17.5654H225.851V35H221.469L221.34 33.2275ZM235.038 13.2793V17.5654H238.019V20.9814H235.038V29.6826C235.038 30.3271 235.162 30.7891 235.409 31.0684C235.656 31.3477 236.129 31.4873 236.827 31.4873C237.343 31.4873 237.799 31.4497 238.197 31.3745V34.9033C237.283 35.1826 236.344 35.3223 235.377 35.3223C232.111 35.3223 230.446 33.6733 230.382 30.3755V20.9814H227.836V17.5654H230.382V13.2793H235.038ZM239.504 26.1216C239.504 24.3921 239.837 22.8506 240.503 21.4971C241.169 20.1436 242.125 19.0962 243.371 18.355C244.628 17.6138 246.084 17.2432 247.738 17.2432C250.09 17.2432 252.008 17.9629 253.49 19.4023C254.984 20.8418 255.816 22.7969 255.988 25.2676L256.02 26.46C256.02 29.1348 255.274 31.2832 253.78 32.9053C252.287 34.5166 250.284 35.3223 247.77 35.3223C245.256 35.3223 243.248 34.5166 241.744 32.9053C240.251 31.2939 239.504 29.1025 239.504 26.3311V26.1216ZM244.161 26.46C244.161 28.1143 244.472 29.3818 245.095 30.2627C245.718 31.1328 246.61 31.5679 247.77 31.5679C248.898 31.5679 249.779 31.1382 250.413 30.2788C251.047 29.4087 251.363 28.0229 251.363 26.1216C251.363 24.4995 251.047 23.2427 250.413 22.3511C249.779 21.4595 248.887 21.0137 247.738 21.0137C246.599 21.0137 245.718 21.4595 245.095 22.3511C244.472 23.2319 244.161 24.6016 244.161 26.46Z" fill="#0D2E68"/>
<path d="M273.409 25.4126H264.127V35H259.293V11.5391H274.569V15.4546H264.127V21.5132H273.409V25.4126ZM282.08 35H277.407V17.5654H282.08V35ZM277.133 13.0537C277.133 12.3555 277.364 11.7808 277.826 11.3296C278.299 10.8784 278.938 10.6528 279.744 10.6528C280.538 10.6528 281.172 10.8784 281.645 11.3296C282.118 11.7808 282.354 12.3555 282.354 13.0537C282.354 13.7627 282.112 14.3428 281.629 14.7939C281.156 15.2451 280.528 15.4707 279.744 15.4707C278.959 15.4707 278.326 15.2451 277.842 14.7939C277.37 14.3428 277.133 13.7627 277.133 13.0537ZM292.669 22.77L295.601 17.5654H300.58L295.617 26.1055L300.79 35H295.795L292.685 29.5215L289.591 35H284.58L289.752 26.1055L284.805 17.5654H289.801L292.669 22.77Z" fill="#00C2FF"/>
</svg>
