<svg width="60" height="61" viewBox="0 0 60 61" fill="none" xmlns="http://www.w3.org/2000/svg">
<rect width="60" height="60" rx="5" fill="#F5FAFF"/>
<mask id="mask0_3738_91851" style="mask-type:alpha" maskUnits="userSpaceOnUse" x="0" y="0" width="60" height="61">
<path d="M0 4.98114C0 2.27517 2.19363 0.081543 4.8996 0.081543H55.1004C57.8064 0.081543 60 2.27517 60 4.98114V55.1819C60 57.8879 57.8064 60.0815 55.1004 60.0815H4.9C2.19381 60.0815 0 57.8877 0 55.1815V4.98114Z" fill="#C4C4C4"/>
</mask>
<g mask="url(#mask0_3738_91851)">
</g>
<g clip-path="url(#clip0_3738_91851)">
<path d="M32 24V14L42 24H32ZM23.5 28C25.4312 28 27 29.5688 27 31.5C27 33.4313 25.4312 35 23.5 35H23V37C23 37.55 22.5525 38 22 38C21.4475 38 21 37.55 21 37V29C21 28.45 21.4475 28 22 28H23.5ZM25 31.5C25 30.6688 24.3312 30 23.5 30H23V33H23.5C24.3312 33 25 32.3313 25 31.5ZM28 29C28 28.45 28.45 28 29 28H30.5C32.1562 28 33.5 29.3438 33.5 31V35C33.5 36.6563 32.1562 38 30.5 38H29C28.45 38 28 37.55 28 37V29ZM30 36H30.5C31.05 36 31.5 35.55 31.5 35V31C31.5 30.45 31.05 30 30.5 30H30V36ZM39 28C39.55 28 40 28.45 40 29C40 29.55 39.55 30 39 30H37V32H39C39.55 32 40 32.45 40 33C40 33.55 39.55 34 39 34H37V37C37 37.55 36.55 38 36 38C35.45 38 35 37.55 35 37V29C35 28.45 35.45 28 36 28H39Z" fill="#0193E5"/>
<path opacity="0.4" d="M23.5 33H23V30H23.5C24.3313 30 25 30.6687 25 31.5C25 32.3313 24.3313 33 23.5 33ZM30 30H30.5C31.05 30 31.5 30.45 31.5 31V35C31.5 35.55 31.05 36 30.5 36H30V30ZM18 18C18 15.7906 19.7906 14 22 14H32V24H42V42C42 44.2062 40.2062 46 38 46H22C19.7906 46 18 44.2062 18 42V18ZM22 28C21.4475 28 21 28.45 21 29V37C21 37.55 21.4475 38 22 38C22.5525 38 23 37.55 23 37V35H23.5C25.4312 35 27 33.4312 27 31.5C27 29.5688 25.4312 28 23.5 28H22ZM28 37C28 37.55 28.45 38 29 38H30.5C32.1562 38 33.5 36.6562 33.5 35V31C33.5 29.3438 32.1562 28 30.5 28H29C28.45 28 28 28.45 28 29V37ZM36 28C35.45 28 35 28.45 35 29V37C35 37.55 35.45 38 36 38C36.55 38 37 37.55 37 37V34H39C39.55 34 40 33.55 40 33C40 32.45 39.55 32 39 32H37V30H39C39.55 30 40 29.55 40 29C40 28.45 39.55 28 39 28H36Z" fill="#0193E5"/>
</g>
<defs>
<clipPath id="clip0_3738_91851">
<rect width="24" height="32" fill="white" transform="translate(18 14)"/>
</clipPath>
</defs>
</svg>
