<svg width="134" height="22" viewBox="0 0 134 22" fill="none" xmlns="http://www.w3.org/2000/svg">
<path d="M2.79457 6.4871C1.8097 6.75791 0.861762 7.2626 0 7.97655V7.16413C0.800207 6.57327 1.64966 6.14244 2.51142 5.92087L2.53604 5.90856L2.54835 5.93318C2.60991 6.10551 2.70839 6.27784 2.80688 6.45018L2.8315 6.4871H2.79457ZM2.32676 5.23154V5.20692C2.30213 4.99766 2.31445 4.8007 2.35138 4.61606L2.36369 4.56682L2.31445 4.57913C1.67428 4.73916 1.03411 4.98535 0.406259 5.33001C0.28315 5.39156 0.147731 5.46542 0 5.56389V6.32708C0.750964 5.8347 1.52655 5.46542 2.30213 5.25616L2.32676 5.23154ZM19.1188 17.381C18.0477 17.3687 17.1367 17.1471 16.3119 16.704C16.078 16.5809 15.8933 16.5193 15.7333 16.5193C15.561 16.5193 15.4378 16.5809 15.327 16.6424C15.2901 16.6671 15.2655 16.6917 15.2655 16.7163C15.2655 16.7286 15.2655 16.7409 15.2901 16.7655C16.3981 17.6026 17.703 18.0211 19.1927 18.0211C19.5989 18.0211 20.0298 17.9842 20.4607 17.9226C21.6425 17.7503 22.8367 17.3441 24.0062 16.7286V15.9777C23.3291 16.3716 22.6397 16.6794 21.9503 16.9132C20.9654 17.2333 20.0175 17.3933 19.1188 17.381ZM23.6123 6.43787C23.7477 6.0932 23.8708 5.72392 23.9816 5.3177V7.20106C23.8216 7.55803 23.6369 7.9027 23.4276 8.22274C22.1596 10.2907 20.3253 11.4725 18.2447 11.5586C17.9493 11.5709 17.74 11.7556 17.6415 11.8787C17.543 11.9894 17.4938 12.0879 17.4938 12.1125C17.5553 12.1495 17.9862 12.2603 18.2201 12.2603H18.2324C20.5222 12.211 22.5658 10.9308 23.9939 8.65358V9.77374C23.8462 9.97069 23.6984 10.143 23.5507 10.3154C22.135 11.9033 20.4361 12.7526 18.6387 12.7526C18.4048 12.7526 18.1585 12.7403 17.9123 12.7034C17.8877 12.7034 17.8508 12.7034 17.8262 12.7034C17.4199 12.7034 17.0998 13.0481 17.0752 13.1219C17.1244 13.1835 17.5184 13.3558 17.7769 13.3927C18.0477 13.4297 18.3186 13.4543 18.5894 13.4543H18.6633C20.6207 13.4543 22.4674 12.5557 24.0062 10.857V11.7802C23.7723 12.0018 23.5261 12.211 23.3045 12.3957C21.9626 13.4666 20.473 14.0205 19.0203 14.0205C18.4417 14.0205 17.8631 13.9343 17.2968 13.7497C17.2229 13.7251 17.1491 13.7128 17.0752 13.7128C16.7182 13.7128 16.4227 13.9467 16.3981 13.9959C16.4473 14.0574 16.8043 14.3159 17.0383 14.3898C17.6784 14.5991 18.3309 14.7098 18.9588 14.7098H19.0326C20.633 14.7098 22.2704 14.0944 23.7354 12.925C23.8339 12.8511 23.92 12.7773 24.0062 12.7034V13.5281C23.5753 13.8605 23.1321 14.1436 22.6766 14.3898C21.5317 15.0053 20.3622 15.313 19.205 15.313C18.5648 15.313 17.937 15.2145 17.3214 15.0299C17.2599 15.0176 17.1983 15.0053 17.1244 15.0053C16.7674 15.0053 16.4596 15.3007 16.435 15.3623C16.4843 15.4238 16.8905 15.6331 17.0998 15.7069C17.7769 15.9285 18.454 16.0393 19.0942 16.0516C19.1188 16.0516 19.1434 16.0516 19.168 16.0516C20.4237 16.0516 21.7164 15.6946 22.9844 15.0176C23.3045 14.8453 23.6492 14.636 23.9816 14.4021V15.1776C23.2429 15.6454 22.4674 16.0023 21.7041 16.2608C20.67 16.6055 19.759 16.7778 18.9218 16.7902C18.0231 16.7532 17.186 16.5686 16.5089 16.2116C16.1642 16.027 15.7949 15.9408 15.2778 16.3224C15.0562 16.4824 14.97 16.5193 14.81 16.5193C14.6623 16.5193 14.4407 16.2855 14.1944 16.1501C13.7636 15.9039 13.6897 15.8669 13.2342 15.7069C12.9387 15.5961 13.0618 14.5868 13.1726 14.3898C13.3942 13.9959 14.3914 13.8113 14.6376 13.3435C14.7977 13.0358 14.4899 12.728 14.3545 12.5434C14.2929 13.1712 13.6405 13.4174 12.988 13.405C12.3232 13.3927 11.1167 12.9865 11.0921 12.6419C10.9936 12.7896 10.8828 13.0481 10.9074 13.2943C10.9813 13.8359 12.5079 13.8359 12.7418 14.3898C12.8279 14.5744 12.7541 15.2145 12.6925 15.3992C12.6187 15.6331 12.4709 15.6823 12.1631 15.7808C10.8828 16.1993 10.7474 17.5041 9.07312 15.9408C10.6366 18.7843 11.1413 16.3224 12.6556 16.3347C13.9482 16.347 14.8223 17.3564 15.524 17.8118C15.5486 17.8241 15.5856 17.8488 15.6225 17.8611C16.0041 18.095 16.4596 18.2796 17.0383 18.4519C17.6661 18.6366 18.3432 18.7227 19.0572 18.7351C19.5374 18.7351 20.0298 18.7104 20.5222 18.6366C21.6671 18.4642 22.8244 18.095 23.9693 17.541V18.2919C22.2827 19.0551 20.5222 19.4244 18.8849 19.3875C17.7154 19.3505 16.6566 19.1043 15.7333 18.6489C15.6348 18.5996 15.5363 18.575 15.4132 18.575C15.1055 18.575 14.8346 18.7474 14.7977 18.8089C14.8346 18.8705 15.1916 19.1659 15.3886 19.2644C16.3735 19.7691 17.543 20.0399 18.8603 20.0768C18.9218 20.0768 18.9711 20.0768 19.0326 20.0768C20.6207 20.0891 22.3319 19.7321 23.957 19.0428V19.7937C22.3935 20.3968 20.7561 20.7169 19.2173 20.7169C18.4909 20.7169 17.7892 20.643 17.1244 20.5076C16.1765 20.3107 15.3147 19.9783 14.5638 19.5106C14.453 19.4367 14.3176 19.4121 14.1821 19.4121C13.899 19.4121 13.6651 19.5475 13.6281 19.5844C13.6651 19.6583 13.9975 19.9783 14.1821 20.0891C14.8223 20.4953 15.5733 20.7784 16.3981 21H14.5761C13.8374 20.643 13.1973 20.2368 12.6556 19.7198C12.4955 19.5721 12.2863 19.5352 12.1508 19.5352C11.9292 19.5352 11.7569 19.609 11.7323 19.6336C11.7569 19.7075 12.0154 20.0645 12.1878 20.2245C12.4832 20.5076 12.8279 20.7415 13.1973 21H12.1631C11.5722 20.4953 11.0798 19.9783 10.6982 19.3751C10.5504 19.1413 10.4273 19.0797 10.2673 18.9936C10.2057 18.9566 10.1319 18.9197 10.058 18.8705C9.88564 18.7597 9.70097 18.575 9.56555 18.3781C9.66404 18.772 9.81177 19.2397 10.1072 19.7198C10.3781 20.163 10.7228 20.5692 11.129 20.9754H10.255C9.09774 19.6213 8.54375 18.1073 8.66686 16.5317C8.67917 16.2485 8.51913 16.0393 8.42064 15.9408C8.29753 15.8177 8.18673 15.7562 8.16211 15.7438C8.11287 15.8054 7.98976 16.2485 7.97745 16.4701C7.85434 18.058 8.33447 19.5967 9.36858 20.9754H8.58068C7.32497 19.092 7.02951 17.0856 7.76817 15.2268C7.92821 14.8083 7.65737 14.3406 7.59581 14.3036C7.53426 14.3406 7.2388 14.6852 7.15262 14.9068C6.36472 16.864 6.57401 18.9936 7.75585 20.9754H7.0172H7.00489C5.81074 18.7597 5.73687 16.5193 6.80792 14.6483C6.96796 14.3775 6.91871 14.1067 6.86947 13.959C6.82023 13.7989 6.75867 13.7128 6.74636 13.7128C6.69712 13.7251 6.40166 13.959 6.2293 14.2544C5.05977 16.2485 5.05977 18.612 6.24162 20.9877H5.52758C5.37985 20.643 5.24443 20.3476 5.13364 20.0275C4.34574 17.6641 4.66582 15.4361 6.03233 13.762C6.18006 13.5897 6.16775 13.3558 6.14313 13.1958C6.1062 12.9988 6.03233 12.8511 6.00771 12.8265C5.94616 12.8511 5.65069 13.1342 5.46603 13.3558C3.95179 15.1776 3.60709 17.6272 4.46885 20.2491C4.55503 20.4953 4.65351 20.7169 4.76431 20.9877H4.0749C3.77944 20.2368 3.58247 19.5106 3.47167 18.772C3.10234 16.2485 3.82868 14.0944 5.51527 12.7034C5.73687 12.5188 5.78611 12.2479 5.78611 12.1002C5.79842 11.9402 5.7738 11.8171 5.74918 11.7925C5.663 11.8048 5.26906 12.0018 5.0967 12.1495C3.20083 13.6882 2.376 16.0762 2.78226 18.8705C2.88075 19.5844 3.07772 20.2614 3.33625 20.9877H2.63453C2.20365 19.6952 2.00667 18.4642 2.04361 17.2333C2.11747 14.6606 3.22545 12.6542 5.17057 11.5709C5.41679 11.4355 5.50296 11.177 5.5399 11.0416C5.58914 10.8816 5.57683 10.7585 5.56452 10.7216C5.44141 10.7216 5.02284 10.857 4.85049 10.9555C2.67146 12.1249 1.42806 14.3529 1.34189 17.2087C1.30495 18.4396 1.48962 19.6829 1.89588 20.9877H1.19416C0.652477 19.0674 0.55399 17.1841 0.911005 15.473C1.42806 12.9742 2.84381 11.1893 4.91204 10.4631C5.17057 10.3769 5.30599 10.1307 5.36754 9.99531C5.4291 9.8476 5.44141 9.7245 5.44141 9.68757C5.4291 9.68757 5.41679 9.68757 5.37985 9.68757C5.21981 9.68757 4.89973 9.73681 4.70276 9.79836C2.38831 10.5862 0.812518 12.5434 0.233907 15.3253C0.098487 15.9777 0.0246218 16.6671 0.0123109 17.3933L0 17.6641V13.7989C0.0369326 13.7128 0.0615544 13.6266 0.098487 13.5528C1.00949 11.2632 2.63453 9.77374 4.67813 9.34291C4.96128 9.28136 5.14595 9.05979 5.21981 8.93669C5.30599 8.80129 5.33061 8.70281 5.34292 8.67819C5.30599 8.66589 5.12133 8.62896 4.88742 8.62896C4.77662 8.62896 4.66582 8.64127 4.59196 8.65358C2.65915 9.03517 1.07105 10.2292 0 12.1372V10.9431C1.28033 9.17057 3.04079 8.18581 4.94897 8.1612C5.23212 8.1612 5.44141 7.97655 5.5399 7.86577C5.65069 7.74267 5.69994 7.63189 5.71225 7.60727C5.65069 7.57034 5.25675 7.47186 4.98591 7.47186C3.09003 7.47186 1.36651 8.2966 0 9.83529V8.91207C0.997181 7.95193 2.10516 7.33646 3.287 7.09027C3.5086 7.04103 3.63171 6.97948 3.65633 6.90563C3.69326 6.80715 3.57015 6.65944 3.42242 6.47479L3.37318 6.41325C2.63453 5.50234 3.01617 4.52989 3.5086 3.68054C2.376 3.7544 1.21878 4.09906 0.0738653 4.71454C0.0615544 4.72685 0.0492435 4.73916 0.0246218 4.75147C0.0246218 4.75147 0.0123109 4.75147 0 4.76377V4.03751C0.455503 3.80363 0.911005 3.61899 1.36651 3.47128C2.21596 3.18816 3.0531 3.04045 3.86562 3.04045C5.40448 3.04045 6.7956 3.56975 7.86665 4.56682C8.01438 4.70223 8.22367 4.73916 8.35909 4.73916C8.58068 4.73916 8.76535 4.67761 8.80228 4.65299C8.76535 4.56682 8.49451 4.19754 8.32215 4.04982C7.09107 2.94197 5.5399 2.35111 3.84099 2.35111C2.96692 2.35111 2.05592 2.51114 1.1326 2.80656C0.775585 2.92966 0.393948 3.07737 0 3.26202V2.54807C0.874072 2.17878 1.76046 1.92028 2.62222 1.79719C3.0531 1.73564 3.47167 1.69871 3.86562 1.69871C5.9954 1.69871 7.8051 2.58499 8.96232 4.18523C9.13467 4.43142 9.44244 4.45604 9.60249 4.45604C9.75022 4.45604 9.83639 4.43142 9.86101 4.41911C9.86101 4.34525 9.63942 3.93904 9.51631 3.7544C8.23598 1.98183 6.24162 1.00938 3.89024 1.00938C3.44705 1.00938 2.99154 1.04631 2.52373 1.10785C1.6989 1.23095 0.849451 1.46483 0 1.79719V1.08324C1.31726 0.603165 2.62222 0.369285 3.87793 0.369285C3.97641 0.369285 4.06259 0.369285 4.16108 0.369285C7.22649 0.455451 9.25778 1.72333 10.1934 4.12368C10.3411 4.50528 10.7966 4.61606 10.9567 4.61606C10.969 4.61606 10.9813 4.61606 10.9936 4.61606C11.0059 4.5422 10.9321 4.08675 10.8459 3.87749C10.1195 1.93259 8.6053 0.590856 6.51246 0.0123095H8.19905C9.91026 0.898593 10.9321 2.30188 11.326 4.32063C11.4122 4.77608 11.9169 4.97304 12.04 4.97304C12.0647 4.89918 12.0647 4.41911 12.0154 4.19754C11.7076 2.48652 10.809 1.034 9.43013 0.0123095H10.3411C11.5845 1.20633 12.3109 2.78195 12.3847 4.43142C12.4094 4.9238 12.9018 5.23154 12.988 5.24385C13.0249 5.16999 13.1234 4.67761 13.1111 4.43142C13.0249 2.79426 12.4094 1.26788 11.3137 0.0123095H12.1385C13.0126 1.21864 13.4312 2.58499 13.3696 3.98828C13.3573 4.29601 13.5297 4.52989 13.6405 4.64068C13.7513 4.76377 13.8621 4.82532 13.8867 4.82532C13.9359 4.76377 14.059 4.2837 14.0713 4.04982C14.1575 2.64654 13.7882 1.24326 12.988 0H13.7266C14.3791 1.19402 14.6007 2.49883 14.3914 3.76671C14.3545 4.0129 14.4653 4.22216 14.5761 4.35756C14.6869 4.49297 14.81 4.57913 14.8469 4.59144C14.8962 4.52989 15.0439 4.12368 15.0808 3.87749C15.3147 2.57268 15.1301 1.26788 14.5268 0.0123095H15.2039C15.7949 1.4279 15.8564 2.89273 15.3886 4.24678C15.2901 4.51759 15.3886 4.78839 15.4625 4.9238C15.5363 5.0592 15.6102 5.13306 15.6348 5.15768C15.6964 5.12075 15.9549 4.75147 16.0288 4.52989C16.5458 3.08968 16.5212 1.52638 15.9549 0.024619H16.632C17.2352 1.79719 17.1244 3.52052 16.2996 5.02227C16.1642 5.26846 16.2134 5.53927 16.2627 5.67468C16.3119 5.8347 16.3858 5.93318 16.4104 5.9578C16.472 5.92087 16.7674 5.58851 16.8782 5.39156C16.6197 4.55451 16.9521 4.30832 17.4568 3.93904C17.5307 3.87749 17.6169 3.82825 17.703 3.7544C18.4909 3.13892 19.1188 3.10199 19.2296 3.10199H19.2419C19.4143 3.10199 19.5497 3.18816 19.6359 3.33587C19.9313 3.84056 19.7097 4.97304 19.3281 5.67468C19.0203 6.24091 18.8233 6.27784 18.5894 6.30246C18.4294 6.32708 18.257 6.3517 17.9985 6.6102C17.7892 6.81946 17.7769 7.10258 17.7769 7.2626C17.7769 7.42263 17.8138 7.5211 17.8385 7.54572C17.9123 7.53341 18.294 7.31184 18.4786 7.1272C20.2391 5.37925 20.5592 2.65885 20.2883 0.849355C20.2514 0.578546 20.1898 0.295428 20.1283 0.0123095H20.7931C20.9654 0.861665 21.0516 1.6864 21.027 2.48652C20.9654 4.82532 20.0175 6.73329 18.3678 7.85346C18.1339 8.01348 18.0601 8.27198 18.0354 8.4197C18.0108 8.57972 18.0231 8.70281 18.0477 8.72743C18.1339 8.72743 18.5648 8.5551 18.7372 8.432C20.5838 7.21336 21.6425 5.09613 21.7164 2.49883C21.741 1.71102 21.6671 0.861665 21.4948 0.0123095H22.1719C22.4427 1.50176 22.4304 2.91735 22.1596 4.24678C21.6795 6.59789 20.3499 8.34584 18.4294 9.14596C18.1709 9.25674 18.0601 9.49062 18.0108 9.62603C17.9493 9.77374 17.9493 9.90914 17.9493 9.94607C17.9493 9.94607 17.9616 9.94607 17.9739 9.94607C18.1093 9.94607 18.5156 9.85991 18.6879 9.78605C20.83 8.91207 22.3073 6.99179 22.849 4.38218C23.1321 3.01583 23.1445 1.53869 22.8859 0.0123095H23.5876C23.92 2.22802 23.7108 4.35756 22.9844 6.17937C22.0734 8.46893 20.4361 9.95838 18.3678 10.3892C18.097 10.4508 17.9246 10.66 17.8508 10.7831C17.7646 10.9308 17.7277 11.0539 17.74 11.0785C17.7523 11.0785 17.8508 11.0909 18.0354 11.0909C18.2078 11.0909 18.3801 11.0785 18.4663 11.0662C20.7808 10.6231 22.6028 8.97362 23.6123 6.43787ZM6.48783 6.68406C6.48783 6.63482 5.98309 6.42556 5.76149 6.38863C5.35523 6.30246 5.21981 6.26553 5.04746 6.0932C4.83818 5.88394 4.82586 5.5762 4.83818 5.1823C4.83818 4.75147 4.71507 3.96366 4.40729 3.95135C3.9641 3.95135 3.87793 4.48066 3.86562 5.14537C3.86562 5.93318 4.37036 6.01934 4.37036 6.52403C4.37036 6.67175 4.28419 6.84408 4.43192 6.84408C4.81355 6.84408 5.18288 6.88101 5.56452 6.95487C6.05695 7.06565 6.50014 6.75791 6.48783 6.68406ZM7.0172 5.82239C6.98027 5.77315 6.68481 5.58851 6.4509 5.46542C6.41397 5.45311 6.38935 5.4408 6.35241 5.42849C6.11851 5.3177 5.90922 5.21923 5.84767 4.77608V4.71454L5.89691 4.72685C6.31548 4.87456 6.69712 5.08382 7.06644 5.3177C7.16493 5.39156 7.28804 5.42849 7.42346 5.42849C7.70661 5.42849 7.95283 5.28077 7.98976 5.24385C7.95283 5.16999 7.62043 4.86225 7.42346 4.73916C6.73405 4.2837 5.98309 3.96366 5.17057 3.80363C5.35523 4.03751 5.51527 4.38218 5.663 4.87456C5.73687 5.13306 5.7738 5.34232 5.79842 5.50234C5.85998 5.8347 5.8846 5.99472 6.13082 6.08089C6.19237 6.10551 6.27855 6.11782 6.35241 6.11782C6.69712 6.11782 6.99258 5.88394 7.0172 5.82239ZM9.36858 11.1893C9.27009 11.0293 9.12236 10.9924 8.99925 10.8939C8.23598 10.4138 7.37422 9.65064 7.5835 8.64127C7.36191 8.71512 7.10338 8.77667 7.00489 8.99824C6.75867 9.90914 7.42346 10.6846 8.13749 11.2386C8.58068 11.6202 7.66968 11.8294 7.81741 12.3587C7.89127 12.5926 8.01438 13.0358 8.33447 12.9619C8.55606 12.2479 9.19623 11.9156 9.36858 11.1893ZM16.7182 8.45662C15.8564 8.66589 14.3052 8.05041 13.8128 9.09672C13.4312 8.57972 12.8033 8.27198 12.1139 8.32122C11.5722 8.37046 11.1537 8.5551 10.8336 8.93669C10.6735 9.13365 10.5874 9.45369 10.3411 9.62603C10.0334 8.5551 8.78997 8.6905 7.84203 8.60434C7.81741 10.5615 9.92257 9.25674 10.5012 10.2661C10.5135 10.2907 10.5258 10.3154 10.5258 10.3154C10.9197 9.40445 11.5968 9.14596 12.434 9.14596H12.4463C13.0003 9.17057 13.2096 9.37984 13.345 9.61372L14.0221 11.8294C14.096 12.0141 14.096 12.4203 14.3545 12.1249C14.6376 11.5094 14.1452 10.8324 14.1329 10.2292V10.2169C14.1329 9.77374 14.4899 9.41676 14.9331 9.41676C15.0808 9.41676 15.2286 9.45369 15.3394 9.52755C15.7949 9.35522 16.0657 8.62896 16.5581 8.85053C16.4596 9.82298 14.8346 9.90914 15.2039 11.017C16.2873 10.8077 17.4938 9.42907 16.7182 8.45662ZM17.9862 6.03165C18.3555 5.63775 18.6756 5.21923 18.9095 4.77608C19.1434 4.33294 18.7741 3.8898 18.7125 3.90211C17.937 3.97597 18.0847 4.88687 17.4568 5.60082C17.1121 5.99472 17.2599 6.51172 17.3214 6.53634C17.383 6.56096 17.8262 6.20399 17.9862 6.03165ZM19.0449 2.62192L19.0942 2.5973C19.2296 2.52345 19.3158 2.53576 19.3896 2.53576H19.4019C19.5004 2.53576 19.5866 2.58499 19.6359 2.64654L19.6851 2.7204V2.63423C19.6974 2.19109 19.6728 1.47714 19.5989 0.960141C19.5497 0.664713 19.4881 0.344666 19.4143 0.024619H18.7495C18.9711 0.849355 19.0696 1.6864 19.0449 2.57268V2.62192ZM17.6538 3.29894L17.6415 3.38511L17.703 3.32356C17.7769 3.24971 17.9616 3.13892 18.1216 3.04045C18.1955 3.00352 18.257 2.95428 18.3063 2.92966L18.3186 2.91735V2.90504C18.3925 1.99414 18.2817 0.923212 18.0231 0.0123095H17.3706C17.7154 1.07093 17.8015 2.11723 17.6538 3.29894ZM0.467813 20.9877C0.233907 20.2491 0.0246218 19.289 0 18.4027V20.9877H0.467813ZM0 0.393904C0.369326 0.24619 1.00949 0.0369285 1.71121 0.0123095H0V0.393904ZM23.9939 20.5199C23.5138 20.7169 22.7874 20.9385 21.8026 20.9877H23.9939V20.5199Z" fill="white"/>
<line x1="38.5062" y1="2.18557e-08" x2="38.5062" y2="21" stroke="white"/>
<path d="M62.5907 17.6646H56.7426L55.6307 21H52.0841L58.1101 4.81195H61.2009L67.2603 21H63.7137L62.5907 17.6646ZM57.6431 14.9628H61.6901L59.6555 8.90344L57.6431 14.9628ZM76.1323 19.777C75.3392 20.7406 74.2422 21.2224 72.8413 21.2224C71.5516 21.2224 70.5658 20.8518 69.8839 20.1105C69.2094 19.3693 68.8648 18.2835 68.8499 16.8529V8.97015H72.0631V16.7417C72.0631 17.9944 72.6338 18.6207 73.7753 18.6207C74.8649 18.6207 75.6135 18.2427 76.0211 17.4867V8.97015H79.2454V21H76.2213L76.1323 19.777ZM86.0161 6.01271V8.97015H88.0729V11.3272H86.0161V17.331C86.0161 17.7757 86.1013 18.0945 86.2718 18.2872C86.4423 18.4799 86.7684 18.5762 87.2502 18.5762C87.606 18.5762 87.921 18.5503 88.1952 18.4984V20.9333C87.5652 21.126 86.9166 21.2224 86.2495 21.2224C83.9963 21.2224 82.8474 20.0846 82.8029 17.8091V11.3272H81.0462V8.97015H82.8029V6.01271H86.0161ZM89.5291 14.8739C89.5291 13.6805 89.7589 12.6169 90.2184 11.683C90.678 10.7491 91.3376 10.0264 92.1974 9.51494C93.0647 9.0035 94.069 8.74778 95.2105 8.74778C96.8337 8.74778 98.1568 9.24439 99.1796 10.2376C100.21 11.2308 100.784 12.5798 100.903 14.2846L100.925 15.1074C100.925 16.953 100.41 18.4354 99.3798 19.5546C98.3495 20.6665 96.9671 21.2224 95.2327 21.2224C93.4983 21.2224 92.1122 20.6665 91.0745 19.5546C90.0442 18.4428 89.5291 16.9308 89.5291 15.0184V14.8739ZM92.7422 15.1074C92.7422 16.2488 92.9572 17.1235 93.3871 17.7313C93.817 18.3316 94.4322 18.6318 95.2327 18.6318C96.011 18.6318 96.6188 18.3353 97.0561 17.7424C97.4934 17.142 97.712 16.1858 97.712 14.8739C97.712 13.7547 97.4934 12.8874 97.0561 12.2722C96.6188 11.657 96.0036 11.3494 95.2105 11.3494C94.4248 11.3494 93.817 11.657 93.3871 12.2722C92.9572 12.88 92.7422 13.8251 92.7422 15.1074Z" fill="white"/>
<path d="M113.355 14.3847H106.951V21H103.615V4.81195H114.155V7.51367H106.951V11.6941H113.355V14.3847ZM119.77 21H116.546V8.97015H119.77V21ZM116.357 5.85706C116.357 5.37527 116.516 4.97873 116.835 4.66742C117.161 4.35611 117.602 4.20045 118.158 4.20045C118.706 4.20045 119.144 4.35611 119.47 4.66742C119.796 4.97873 119.959 5.37527 119.959 5.85706C119.959 6.34626 119.792 6.74651 119.459 7.05782C119.132 7.36913 118.699 7.52478 118.158 7.52478C117.617 7.52478 117.179 7.36913 116.846 7.05782C116.52 6.74651 116.357 6.34626 116.357 5.85706ZM127.508 12.5613L129.531 8.97015H132.967L129.542 14.8628L133.111 21H129.665L127.519 17.2198L125.384 21H121.926L125.495 14.8628L122.082 8.97015H125.529L127.508 12.5613Z" fill="#00C2FF"/>
</svg>
