<svg width="215" height="26" viewBox="0 0 215 26" fill="none" xmlns="http://www.w3.org/2000/svg">
<path d="M3.32687 7.72274C2.1544 8.04514 1.02591 8.64596 0 9.4959V8.52872C0.952627 7.82532 1.96388 7.31243 2.98978 7.04865L3.0191 7.034L3.03375 7.06331C3.10703 7.26846 3.22428 7.47362 3.34152 7.67878L3.37084 7.72274H3.32687ZM2.76995 6.22802V6.19871C2.74064 5.94959 2.75529 5.71512 2.79926 5.49531L2.81392 5.43669L2.75529 5.45135C1.99319 5.64185 1.23109 5.93494 0.483642 6.34525C0.337084 6.41852 0.17587 6.50645 0 6.62368V7.53224C0.894004 6.94607 1.81732 6.50645 2.74064 6.25733L2.76995 6.22802ZM22.7605 20.6917C21.4854 20.677 20.4009 20.4132 19.4189 19.8857C19.1405 19.7392 18.9206 19.6659 18.7301 19.6659C18.5249 19.6659 18.3784 19.7392 18.2465 19.8124C18.2025 19.8417 18.1732 19.871 18.1732 19.9004C18.1732 19.915 18.1732 19.9297 18.2025 19.959C19.5215 20.9555 21.0751 21.4537 22.8484 21.4537C23.332 21.4537 23.845 21.4097 24.358 21.3365C25.7649 21.1313 27.1865 20.6477 28.5788 19.915V19.0211C27.7728 19.49 26.952 19.8564 26.1313 20.1348C24.9588 20.5158 23.8303 20.7063 22.7605 20.6917ZM28.1098 7.66413C28.2711 7.25381 28.4176 6.81419 28.5495 6.3306V8.57269C28.359 8.99766 28.1392 9.40797 27.89 9.78898C26.3805 12.2509 24.1967 13.6577 21.7199 13.7603C21.3682 13.7749 21.119 13.9947 21.0018 14.1413C20.8845 14.2732 20.8259 14.3904 20.8259 14.4197C20.8992 14.4637 21.4121 14.5955 21.6906 14.5955H21.7053C24.4312 14.5369 26.8641 13.0129 28.5642 10.3019V11.6354C28.3883 11.8699 28.2124 12.075 28.0366 12.2802C26.3511 14.1706 24.3286 15.1817 22.1889 15.1817C21.9104 15.1817 21.6173 15.1671 21.3242 15.1231C21.2949 15.1231 21.2509 15.1231 21.2216 15.1231C20.738 15.1231 20.3569 15.5334 20.3276 15.6213C20.3862 15.6946 20.8552 15.8998 21.163 15.9437C21.4854 15.9877 21.8078 16.017 22.1303 16.017H22.2182C24.5485 16.017 26.7469 14.9472 28.5788 12.925V14.024C28.3004 14.2878 28.0072 14.5369 27.7434 14.7567C26.146 16.0317 24.3726 16.6911 22.6432 16.6911C21.9544 16.6911 21.2656 16.5885 20.5914 16.3687C20.5035 16.3394 20.4155 16.3247 20.3276 16.3247C19.9026 16.3247 19.5508 16.6032 19.5215 16.6618C19.5802 16.7351 20.0052 17.0428 20.2836 17.1307C21.0457 17.3798 21.8225 17.5117 22.5699 17.5117H22.6579C24.5631 17.5117 26.5124 16.779 28.2564 15.3869C28.3736 15.2989 28.4762 15.211 28.5788 15.1231V16.1049C28.0659 16.5006 27.5383 16.8376 26.996 17.1307C25.633 17.8634 24.2407 18.2298 22.8631 18.2298C22.101 18.2298 21.3535 18.1125 20.6207 17.8927C20.5474 17.8781 20.4742 17.8634 20.3862 17.8634C19.9612 17.8634 19.5948 18.2151 19.5655 18.2884C19.6241 18.3617 20.1078 18.6108 20.3569 18.6987C21.163 18.9625 21.9691 19.0944 22.7312 19.109C22.7605 19.109 22.7898 19.109 22.8191 19.109C24.314 19.109 25.8528 18.6841 27.3624 17.8781C27.7434 17.6729 28.1538 17.4238 28.5495 17.1454V18.0686C27.6702 18.6254 26.7468 19.0504 25.8382 19.3581C24.6071 19.7685 23.5226 19.9736 22.526 19.9883C21.4561 19.9443 20.4595 19.7245 19.6534 19.2995C19.2431 19.0797 18.8034 18.9771 18.1879 19.4314C17.9241 19.6219 17.8215 19.6659 17.6309 19.6659C17.4551 19.6659 17.1913 19.3875 16.8981 19.2263C16.3852 18.9332 16.2973 18.8892 15.755 18.6987C15.4033 18.5668 15.5498 17.3652 15.6817 17.1307C15.9455 16.6618 17.1326 16.442 17.4258 15.8851C17.6163 15.5188 17.2499 15.1524 17.0887 14.9326C17.0154 15.68 16.2386 15.973 15.4619 15.9584C14.6705 15.9437 13.2342 15.4601 13.2049 15.0498C13.0876 15.2257 12.9557 15.5334 12.985 15.8265C13.073 16.4713 14.8903 16.4713 15.1688 17.1307C15.2714 17.3505 15.1834 18.1125 15.1101 18.3324C15.0222 18.6108 14.8463 18.6694 14.4799 18.7866C12.9557 19.2849 12.7945 20.8382 10.8013 18.9771C12.6626 22.3622 13.2635 19.4314 15.0662 19.4461C16.605 19.4607 17.6456 20.6624 18.481 21.2046C18.5103 21.2192 18.5543 21.2485 18.5982 21.2632C19.0526 21.5416 19.5948 21.7614 20.2836 21.9666C21.0311 22.1864 21.8372 22.289 22.6872 22.3036C23.2588 22.3036 23.845 22.2743 24.4312 22.1864C25.7942 21.9812 27.1719 21.5416 28.5349 20.8822V21.7761C26.527 22.6846 24.4312 23.1243 22.482 23.0803C21.0897 23.0363 19.8293 22.7433 18.7301 22.2011C18.6129 22.1424 18.4956 22.1131 18.3491 22.1131C17.9827 22.1131 17.6602 22.3183 17.6163 22.3916C17.6602 22.4648 18.0853 22.8165 18.3198 22.9338C19.4922 23.5346 20.8845 23.857 22.4527 23.9009C22.526 23.9009 22.5846 23.9009 22.6579 23.9009C24.5485 23.9156 26.5856 23.4906 28.5202 22.67V23.5639C26.6589 24.2819 24.7097 24.663 22.8777 24.663C22.013 24.663 21.1776 24.575 20.3862 24.4138C19.2577 24.1794 18.2318 23.7837 17.3378 23.2268C17.2059 23.1389 17.0447 23.1096 16.8835 23.1096C16.5464 23.1096 16.2679 23.2708 16.224 23.3148C16.2679 23.4027 16.6637 23.7837 16.8835 23.9156C17.6456 24.3992 18.5396 24.7362 19.5215 25H17.3525C16.4731 24.575 15.711 24.0914 15.0662 23.476C14.8756 23.3001 14.6265 23.2562 14.4653 23.2562C14.2015 23.2562 13.9963 23.3441 13.967 23.3734C13.9963 23.4613 14.3041 23.8863 14.5092 24.0768C14.861 24.4138 15.2714 24.6923 15.711 25H14.4799C13.7765 24.3992 13.1902 23.7837 12.7359 23.0657C12.56 22.7872 12.4135 22.714 12.2229 22.6114C12.1497 22.5674 12.0617 22.5234 11.9738 22.4648C11.7686 22.3329 11.5488 22.1131 11.3876 21.8787C11.5048 22.3476 11.6807 22.9045 12.0324 23.476C12.3548 24.0035 12.7652 24.4871 13.2489 24.9707H12.2083C10.8306 23.3587 10.1711 21.5563 10.3177 19.6805C10.3323 19.3435 10.1418 19.0944 10.0246 18.9771C9.87802 18.8306 9.74611 18.7573 9.7168 18.7427C9.65818 18.8159 9.51162 19.3435 9.49696 19.6073C9.35041 21.4977 9.92198 23.3294 11.1531 24.9707H10.2151C8.72021 22.7286 8.36847 20.34 9.24782 18.1272C9.43834 17.629 9.11591 17.0721 9.04263 17.0281C8.96935 17.0721 8.61761 17.4824 8.51502 17.7462C7.57705 20.0762 7.8262 22.6114 9.23316 24.9707H8.35381H8.33916C6.91754 22.3329 6.82961 19.6659 8.10466 17.4385C8.29519 17.1161 8.23656 16.7937 8.17794 16.6178C8.11932 16.4273 8.04604 16.3247 8.03138 16.3247C7.97276 16.3394 7.62102 16.6178 7.41584 16.9695C6.02354 19.3435 6.02354 22.1571 7.43049 24.9853H6.58046C6.40459 24.575 6.24337 24.2233 6.11147 23.8423C5.1735 21.0287 5.55455 18.3763 7.18135 16.3834C7.35722 16.1782 7.34256 15.8998 7.31325 15.7093C7.26928 15.4748 7.18135 15.2989 7.15203 15.2696C7.07876 15.2989 6.72702 15.636 6.50718 15.8998C4.70451 18.0686 4.29415 20.9848 5.32006 24.1061C5.42265 24.3992 5.5399 24.663 5.6718 24.9853H4.85107C4.49933 24.0914 4.26484 23.2268 4.13294 22.3476C3.69326 19.3435 4.55796 16.779 6.5658 15.1231C6.82961 14.9033 6.88823 14.5809 6.88823 14.405C6.90289 14.2145 6.87357 14.068 6.84426 14.0387C6.74167 14.0533 6.27269 14.2878 6.0675 14.4637C3.81051 16.2954 2.82857 19.1383 3.31221 22.4648C3.42946 23.3148 3.66395 24.1208 3.97172 24.9853H3.13634C2.62339 23.4467 2.3889 21.9812 2.43286 20.5158C2.5208 17.4531 3.83982 15.0645 6.15544 13.7749C6.44856 13.6137 6.55115 13.306 6.59511 13.1448C6.65374 12.9543 6.63908 12.8077 6.62443 12.7638C6.47787 12.7638 5.97957 12.925 5.77439 13.0422C3.18031 14.4344 1.70007 17.0868 1.59748 20.4865C1.55352 21.9519 1.77335 23.432 2.25699 24.9853H1.42161C0.776758 22.6993 0.659511 20.4572 1.08453 18.4203C1.70007 15.4455 3.38549 13.3206 5.84767 12.456C6.15544 12.3535 6.31665 12.0604 6.38993 11.8992C6.46321 11.7233 6.47787 11.5768 6.47787 11.5328C6.46321 11.5328 6.44856 11.5328 6.40459 11.5328C6.21406 11.5328 5.83301 11.5914 5.59852 11.6647C2.84323 12.6026 0.967283 14.9326 0.27846 18.2444C0.117246 19.0211 0.0293116 19.8417 0.0146558 20.7063L0 21.0287V16.4273C0.0439674 16.3247 0.073279 16.2222 0.117246 16.1342C1.20178 13.4086 3.13634 11.6354 5.56921 11.1225C5.90629 11.0492 6.12613 10.7855 6.21406 10.6389C6.31665 10.4777 6.34597 10.3605 6.36062 10.3312C6.31665 10.3165 6.09682 10.2726 5.81836 10.2726C5.68645 10.2726 5.55455 10.2872 5.46662 10.3019C3.16565 10.7562 1.27506 12.1776 0 14.449V13.0276C1.5242 10.9174 3.61998 9.74502 5.89163 9.71571C6.22872 9.71571 6.47787 9.4959 6.59511 9.36401C6.72702 9.21747 6.78564 9.08558 6.80029 9.05627C6.72702 9.01231 6.25803 8.89508 5.9356 8.89508C3.67861 8.89508 1.62679 9.87691 0 11.7087V10.6096C1.18712 9.46659 2.50614 8.73388 3.9131 8.4408C4.17691 8.38218 4.32346 8.30891 4.35278 8.22099C4.39674 8.10375 4.25018 7.9279 4.07431 7.70809L4.01569 7.63482C3.13634 6.55041 3.59067 5.39273 4.17691 4.38159C2.82857 4.46952 1.45092 4.87984 0.0879348 5.61254C0.073279 5.6272 0.0586232 5.64185 0.0293116 5.65651C0.0293116 5.65651 0.0146558 5.65651 0 5.67116V4.80657C0.542265 4.52814 1.08453 4.30832 1.62679 4.13247C2.63805 3.79543 3.63464 3.61958 4.60192 3.61958C6.4339 3.61958 8.09001 4.24971 9.36506 5.43669C9.54093 5.59789 9.79008 5.64185 9.95129 5.64185C10.2151 5.64185 10.4349 5.56858 10.4789 5.53927C10.4349 5.43669 10.1125 4.99707 9.90733 4.82122C8.44175 3.50234 6.59511 2.79894 4.57261 2.79894C3.53205 2.79894 2.44752 2.98945 1.34833 3.34115C0.923316 3.48769 0.468986 3.66354 0 3.88335V3.03341C1.04056 2.59379 2.09578 2.28605 3.12169 2.13951C3.63464 2.06624 4.13294 2.02227 4.60192 2.02227C7.13738 2.02227 9.29178 3.07737 10.6694 4.98242C10.8746 5.2755 11.241 5.30481 11.4315 5.30481C11.6074 5.30481 11.71 5.2755 11.7393 5.26084C11.7393 5.17292 11.4755 4.68933 11.3289 4.46952C9.80474 2.35932 7.4305 1.20164 4.63124 1.20164C4.10363 1.20164 3.56136 1.2456 3.00444 1.31887C2.0225 1.46542 1.01125 1.74385 0 2.13951V1.28957C1.56817 0.718054 3.12169 0.439625 4.61658 0.439625C4.73383 0.439625 4.83642 0.439625 4.95366 0.439625C8.60296 0.542204 11.0212 2.05158 12.135 4.90914C12.3109 5.36342 12.8531 5.49531 13.0437 5.49531C13.0583 5.49531 13.073 5.49531 13.0876 5.49531C13.1023 5.40739 13.0144 4.86518 12.9118 4.61606C12.0471 2.3007 10.2444 0.7034 7.75292 0.0146542H9.76077C11.7979 1.06975 13.0144 2.74033 13.4833 5.14361C13.5859 5.68581 14.1868 5.92028 14.3334 5.92028C14.3627 5.83236 14.3627 5.26084 14.3041 4.99707C13.9377 2.96014 12.8678 1.23095 11.2263 0.0146542H12.3109C13.7911 1.43611 14.6558 3.31184 14.7437 5.2755C14.7731 5.86166 15.3593 6.22802 15.4619 6.24267C15.5058 6.15475 15.6231 5.56858 15.6084 5.2755C15.5058 3.32649 14.7731 1.50938 13.4687 0.0146542H14.4506C15.4912 1.45076 15.9895 3.07737 15.9162 4.74795C15.9016 5.1143 16.1067 5.39273 16.2386 5.52462C16.3705 5.67116 16.5024 5.74443 16.5318 5.74443C16.5904 5.67116 16.7369 5.09965 16.7516 4.82122C16.8542 3.15065 16.4145 1.48007 15.4619 0H16.3412C17.118 1.42145 17.3818 2.97479 17.1326 4.48417C17.0887 4.77726 17.2206 5.02638 17.3525 5.18757C17.4844 5.34877 17.6309 5.45135 17.6749 5.466C17.7335 5.39273 17.9094 4.90914 17.9534 4.61606C18.2318 3.06272 18.012 1.50938 17.2939 0.0146542H18.0999C18.8034 1.69988 18.8767 3.44373 18.3198 5.05569C18.2025 5.37808 18.3198 5.70047 18.4077 5.86166C18.4956 6.02286 18.5836 6.11079 18.6129 6.14009C18.6862 6.09613 18.9939 5.65651 19.0819 5.39273C19.6974 3.67819 19.6681 1.81712 18.9939 0.0293083H19.8C20.5181 2.13951 20.3862 4.19109 19.4043 5.9789C19.2431 6.27198 19.3017 6.59437 19.3603 6.75557C19.4189 6.94607 19.5069 7.06331 19.5362 7.09261C19.6095 7.04865 19.9612 6.65299 20.0931 6.41852C19.7853 5.42204 20.181 5.12896 20.7819 4.68933C20.8699 4.61606 20.9725 4.55744 21.0751 4.46952C22.013 3.73681 22.7605 3.69285 22.8924 3.69285H22.907C23.1122 3.69285 23.2734 3.79543 23.376 3.97128C23.7278 4.5721 23.4639 5.92028 23.0096 6.75557C22.6432 7.42966 22.4087 7.47362 22.1303 7.50293C21.9397 7.53224 21.7346 7.56155 21.4268 7.86929C21.1776 8.11841 21.163 8.45545 21.163 8.64596C21.163 8.83646 21.207 8.95369 21.2363 8.983C21.3242 8.96835 21.7785 8.70457 21.9984 8.48476C24.0941 6.40387 24.4752 3.1653 24.1528 1.01114C24.1088 0.688746 24.0355 0.3517 23.9622 0.0146542H24.7537C24.9588 1.02579 25.0614 2.00762 25.0321 2.96014C24.9588 5.74443 23.8303 8.01583 21.8665 9.34936C21.588 9.53986 21.5001 9.8476 21.4708 10.0234C21.4414 10.214 21.4561 10.3605 21.4854 10.3898C21.588 10.3898 22.101 10.1846 22.3061 10.0381C24.5045 8.58734 25.7649 6.06682 25.8528 2.97479C25.8822 2.03693 25.7942 1.02579 25.589 0.0146542H26.3951C26.7175 1.78781 26.7029 3.47304 26.3805 5.05569C25.8089 7.85463 24.2261 9.93552 21.9397 10.888C21.632 11.0199 21.5001 11.2984 21.4414 11.4596C21.3682 11.6354 21.3682 11.7966 21.3682 11.8406C21.3682 11.8406 21.3828 11.8406 21.3975 11.8406C21.5587 11.8406 22.0423 11.738 22.2475 11.6501C24.7976 10.6096 26.5563 8.32356 27.2012 5.21688C27.5383 3.59027 27.5529 1.83177 27.2451 0.0146542H28.0805C28.4762 2.6524 28.2271 5.18757 27.3624 7.35639C26.2779 10.0821 24.3286 11.8552 21.8665 12.3681C21.544 12.4414 21.3389 12.6905 21.2509 12.837C21.1483 13.0129 21.1044 13.1594 21.119 13.1887C21.1337 13.1887 21.2509 13.2034 21.4708 13.2034C21.6759 13.2034 21.8811 13.1887 21.9837 13.1741C24.739 12.6465 26.9081 10.6829 28.1098 7.66413ZM7.72361 7.95721C7.72361 7.89859 7.12272 7.64947 6.85892 7.60551C6.37528 7.50293 6.21406 7.45897 6.00888 7.25381C5.75973 7.00469 5.74508 6.63834 5.75973 6.1694C5.75973 5.65651 5.61317 4.71864 5.24678 4.70399C4.71917 4.70399 4.61658 5.33412 4.60192 6.12544C4.60192 7.06331 5.20281 7.16589 5.20281 7.76671C5.20281 7.94256 5.10022 8.14771 5.27609 8.14771C5.73042 8.14771 6.1701 8.19168 6.62443 8.2796C7.21066 8.41149 7.73827 8.04514 7.72361 7.95721ZM8.35381 6.93142C8.30984 6.8728 7.9581 6.65299 7.67964 6.50645C7.63568 6.49179 7.60636 6.47714 7.5624 6.46249C7.28394 6.3306 7.03479 6.21336 6.96151 5.68581V5.61254L7.02013 5.6272C7.51843 5.80305 7.97276 6.05217 8.41243 6.3306C8.52968 6.41852 8.67624 6.46249 8.83745 6.46249C9.17454 6.46249 9.46765 6.28664 9.51162 6.24267C9.46765 6.15475 9.07195 5.78839 8.83745 5.64185C8.01673 5.09965 7.12272 4.71864 6.15544 4.52814C6.37528 4.80656 6.5658 5.21688 6.74167 5.80305C6.82961 6.11079 6.87357 6.35991 6.90289 6.55041C6.97616 6.94607 7.00548 7.13658 7.29859 7.23916C7.37187 7.26846 7.47446 7.28312 7.5624 7.28312C7.97276 7.28312 8.3245 7.00469 8.35381 6.93142ZM11.1531 13.3206C11.0358 13.1301 10.86 13.0862 10.7134 12.9689C9.80474 12.3974 8.77883 11.4889 9.02798 10.2872C8.76417 10.3751 8.4564 10.4484 8.33916 10.7122C8.04604 11.7966 8.83745 12.7198 9.68749 13.3792C10.2151 13.8335 9.13057 14.0826 9.30644 14.7128C9.39437 14.9912 9.54093 15.5188 9.92198 15.4308C10.1858 14.5809 10.9479 14.1852 11.1531 13.3206ZM19.9026 10.0674C18.8767 10.3165 17.03 9.58382 16.4438 10.8294C15.9895 10.214 15.242 9.8476 14.4213 9.90621C13.7765 9.96483 13.2782 10.1846 12.8971 10.6389C12.7066 10.8734 12.604 11.2544 12.3109 11.4596C11.9445 10.1846 10.4642 10.3458 9.33575 10.2433C9.30644 12.5733 11.8126 11.0199 12.5014 12.2216C12.5161 12.2509 12.5307 12.2802 12.5307 12.2802C12.9997 11.1958 13.8058 10.888 14.8024 10.888H14.817C15.4765 10.9174 15.7257 11.1665 15.8869 11.4449L16.693 14.0827C16.7809 14.3025 16.7809 14.786 17.0887 14.4344C17.4258 13.7016 16.8395 12.8957 16.8249 12.1776V12.163C16.8249 11.6354 17.2499 11.2104 17.7775 11.2104C17.9534 11.2104 18.1292 11.2544 18.2611 11.3423C18.8034 11.1372 19.1258 10.2726 19.7121 10.5363C19.5948 11.694 17.6602 11.7966 18.0999 13.1155C19.3896 12.8664 20.8259 11.2251 19.9026 10.0674ZM21.4121 7.18054C21.8518 6.71161 22.2329 6.21336 22.5113 5.68581C22.7898 5.15826 22.3501 4.63072 22.2768 4.64537C21.3535 4.73329 21.5294 5.8177 20.7819 6.66764C20.3716 7.13658 20.5474 7.75205 20.6207 7.78136C20.694 7.81067 21.2216 7.3857 21.4121 7.18054ZM22.6725 3.12134L22.7312 3.09203C22.8924 3.0041 22.995 3.01876 23.0829 3.01876H23.0976C23.2148 3.01876 23.3174 3.07737 23.376 3.15065L23.4346 3.23857V3.13599C23.4493 2.60844 23.42 1.7585 23.332 1.14302C23.2734 0.791325 23.2001 0.410317 23.1122 0.0293083H22.3208C22.5846 1.01114 22.7018 2.00762 22.6725 3.06272V3.12134ZM21.0164 3.92732L21.0018 4.02989L21.0751 3.95662C21.163 3.8687 21.3828 3.73681 21.5734 3.61958C21.6613 3.57562 21.7346 3.517 21.7932 3.48769L21.8078 3.47304V3.45838C21.8958 2.37397 21.7639 1.09906 21.4561 0.0146542H20.6793C21.0897 1.27491 21.1923 2.52052 21.0164 3.92732ZM54.3291 17.8195V24.9707H56.1024C61.6863 24.9707 65.4528 22.245 65.4528 17.2919V15.3136C65.4528 12.9543 66.8012 11.5328 69.0289 11.5328H69.3366V4.4109H67.5047C61.0854 4.4109 57.7585 7.76671 57.7585 12.9543V14.6395C57.7585 16.5739 56.63 17.8195 54.7248 17.8195H54.3291ZM68.4866 17.8195V24.9707H70.2746C75.8438 24.9707 79.625 22.245 79.625 17.2919V15.3136C79.625 12.9543 80.9733 11.5328 83.201 11.5328H83.5088V4.4109H81.6768C75.2576 4.4109 71.9307 7.76671 71.9307 12.9543V14.6395C71.9307 16.5739 70.8022 17.8195 68.8969 17.8195H68.4866ZM43.2346 24.9853V17.8341H42.1648C40.4354 17.8341 39.0284 16.4273 39.0284 14.6981C39.0284 12.9689 40.4354 11.5621 42.1648 11.5621C44.0847 11.5621 45.052 12.8224 45.052 14.6981V25H52.5118V14.6981C52.5118 8.99766 47.8659 4.36694 42.1648 4.36694C36.4637 4.36694 31.8324 9.01231 31.8324 14.6981C31.8324 20.3986 36.4783 25 42.1648 25H43.2346V24.9853ZM95.5998 24.9853V17.8341H94.53C92.8006 17.8341 91.3936 16.4273 91.3936 14.6981C91.3936 12.9689 92.8006 11.5621 94.53 11.5621C96.4352 11.5621 97.4025 12.8224 97.4025 14.6981V25H104.862V14.6981C104.862 8.99766 100.231 4.36694 94.53 4.36694C88.8289 4.36694 84.183 9.01231 84.183 14.6981C84.183 20.3986 88.8289 25 94.53 25H95.5998V24.9853ZM0.556921 24.9853C0.27846 24.1061 0.0293116 22.9631 0 21.908V24.9853H0.556921ZM0 0.468933C0.439674 0.293083 1.20178 0.0439625 2.03716 0.0146542H0V0.468933ZM28.5642 24.4285C27.9926 24.663 27.1279 24.9267 25.9554 24.9853H28.5642V24.4285Z" fill="white"/>
<line x1="119.362" y1="4" x2="119.362" y2="25" stroke="white"/>
<path d="M143.447 21.6646H137.599L136.487 25H132.94L138.966 8.81195H142.057L148.116 25H144.57L143.447 21.6646ZM138.499 18.9628H142.546L140.512 12.9034L138.499 18.9628ZM156.988 23.777C156.195 24.7406 155.098 25.2224 153.697 25.2224C152.408 25.2224 151.422 24.8518 150.74 24.1105C150.065 23.3693 149.721 22.2835 149.706 20.8529V12.9701H152.919V20.7417C152.919 21.9944 153.49 22.6207 154.631 22.6207C155.721 22.6207 156.47 22.2427 156.877 21.4867V12.9701H160.101V25H157.077L156.988 23.777ZM166.872 10.0127V12.9701H168.929V15.3272H166.872V21.331C166.872 21.7757 166.957 22.0945 167.128 22.2872C167.298 22.4799 167.624 22.5762 168.106 22.5762C168.462 22.5762 168.777 22.5503 169.051 22.4984V24.9333C168.421 25.126 167.773 25.2224 167.106 25.2224C164.852 25.2224 163.703 24.0846 163.659 21.8091V15.3272H161.902V12.9701H163.659V10.0127H166.872ZM170.385 18.8739C170.385 17.6805 170.615 16.6169 171.074 15.683C171.534 14.7491 172.194 14.0264 173.054 13.5149C173.921 13.0035 174.925 12.7478 176.067 12.7478C177.69 12.7478 179.013 13.2444 180.036 14.2376C181.066 15.2308 181.64 16.5798 181.759 18.2846L181.781 19.1074C181.781 20.953 181.266 22.4354 180.236 23.5546C179.206 24.6665 177.823 25.2224 176.089 25.2224C174.354 25.2224 172.968 24.6665 171.931 23.5546C170.9 22.4428 170.385 20.9308 170.385 19.0184V18.8739ZM173.598 19.1074C173.598 20.2488 173.813 21.1235 174.243 21.7313C174.673 22.3316 175.288 22.6318 176.089 22.6318C176.867 22.6318 177.475 22.3353 177.912 21.7424C178.349 21.142 178.568 20.1858 178.568 18.8739C178.568 17.7547 178.349 16.8874 177.912 16.2722C177.475 15.657 176.86 15.3494 176.067 15.3494C175.281 15.3494 174.673 15.657 174.243 16.2722C173.813 16.88 173.598 17.8251 173.598 19.1074Z" fill="white"/>
<path d="M194.211 18.3847H187.807V25H184.472V8.81195H195.012V11.5137H187.807V15.6941H194.211V18.3847ZM200.626 25H197.402V12.9701H200.626V25ZM197.213 9.85706C197.213 9.37527 197.372 8.97873 197.691 8.66742C198.017 8.35611 198.458 8.20045 199.014 8.20045C199.562 8.20045 200 8.35611 200.326 8.66742C200.652 8.97873 200.815 9.37527 200.815 9.85706C200.815 10.3463 200.648 10.7465 200.315 11.0578C199.988 11.3691 199.555 11.5248 199.014 11.5248C198.473 11.5248 198.035 11.3691 197.702 11.0578C197.376 10.7465 197.213 10.3463 197.213 9.85706ZM208.364 16.5613L210.387 12.9701H213.823L210.398 18.8628L213.967 25H210.521L208.375 21.2198L206.24 25H202.783L206.351 18.8628L202.938 12.9701H206.385L208.364 16.5613Z" fill="#00C2FF"/>
</svg>
