<svg width="55" height="30" viewBox="0 0 55 30" fill="none" xmlns="http://www.w3.org/2000/svg">
  <path
    d="M33.4403 6.96632L33.5517 6.96632C33.5678 5.55046 34.7115 4.40671 36.1274 4.39065C36.7951 4.40108 37.4374 4.64927 37.9387 5.09055C38.4076 5.49618 38.7019 6.01437 38.7019 6.46221L38.7019 21.9666C38.6869 25.732 35.6383 28.7806 31.8729 28.7956L21.0696 28.7956C17.3042 28.7806 14.2556 25.732 14.2406 21.9666L14.2406 14.8844L17.8233 14.8844L17.8233 3.83144C17.8393 2.41628 18.9827 1.27288 20.3978 1.25693C21.8135 1.27241 22.9574 2.41581 22.9735 3.83144L22.9735 4.89476L23.0286 4.89476C23.0451 3.47937 24.1889 2.33621 25.6043 2.32026C27.019 2.3375 28.1615 3.48008 28.1788 4.89476L28.1788 5.90299L28.2901 5.90299C28.3062 4.48713 29.45 3.34338 30.8658 3.32732C31.5336 3.33775 32.1758 3.58594 32.6771 4.02722C33.1461 4.43285 33.4403 4.95104 33.4403 5.39888L33.4403 6.96632V6.96632Z"
    fill="white" />
  <path
    d="M2.94731 7.60051C5.42451 5.12331 9.60279 5.12331 12.08 7.60051C12.5864 8.13088 12.9991 8.74332 13.3004 9.4118L17.8234 9.4118L17.8234 14.8844L13.3004 14.8844C13.0125 15.5606 12.5983 16.1757 12.08 16.6968C9.60279 19.174 5.42451 19.174 2.94731 16.6968C2.32186 16.0693 1.84225 15.3115 1.54283 14.4776L1.17236 13.5537L5.66367 13.5537C6.43965 13.5537 7.06874 12.9247 7.06874 12.1487C7.06874 11.3727 6.43965 10.7436 5.66367 10.7436L1.17236 10.7436L1.54283 9.81861C1.91212 8.89479 2.35644 8.19138 2.94731 7.60051Z"
    fill="#00C2FF" />
  <path
    d="M42.9201 7.6004C45.3972 5.12321 49.5755 5.12321 52.0527 7.6004C52.6785 8.22738 53.158 8.98472 53.4572 9.8185L53.8277 10.7435L49.3364 10.7435C48.5604 10.7435 47.9313 11.3726 47.9313 12.1486C47.9313 12.9245 48.5604 13.5536 49.3364 13.5536L53.8277 13.5536L53.4572 14.4775C53.0879 15.4024 52.6436 16.1047 52.0527 16.6967C49.5755 19.1739 45.3972 19.1739 42.9201 16.6967C42.4139 16.1658 42.0013 15.553 41.6996 14.8843L38.7019 14.8843L38.7019 9.4117L41.6996 9.4117C41.9873 8.73571 42.4016 8.12093 42.9201 7.6004Z"
    fill="#00C2FF" />
  <path
    d="M25.6043 1.14793C24.8643 1.15039 24.1422 1.37537 23.5318 1.7939C23.3882 1.57608 23.2228 1.37338 23.0383 1.18897C22.33 0.482737 21.3711 0.0856579 20.3709 0.0846028C18.3399 0.0846029 16.5971 1.80047 16.5971 3.83146L16.5971 8.22664L14.0153 8.22664C13.7031 7.71642 13.3426 7.2374 12.9386 6.79636C12.9289 6.78604 12.9191 6.77889 12.909 6.76881C9.98441 3.84436 5.04245 3.846 2.11835 6.77045C1.41377 7.47504 0.885032 8.30624 0.454542 9.38247L0.084077 10.3079C-0.0607093 10.6599 -0.0165114 11.0614 0.201313 11.3735C0.422654 11.6886 0.787375 11.8717 1.17238 11.8609L5.66368 11.8609C5.82934 11.8609 5.89698 11.93 5.89698 12.0954C5.89698 12.2608 5.82934 12.3299 5.66368 12.3299L1.17238 12.3299C0.505774 12.3498 -0.0183871 12.9065 0.00154305 13.5731C0.00564631 13.7115 0.0336657 13.8483 0.0841944 13.9773L0.451494 14.8998C0.809181 15.8853 1.37813 16.7805 2.11847 17.5227C5.04304 20.4472 9.99039 20.4488 12.9151 17.5244C12.9694 17.47 12.9629 17.4169 13.0801 17.3615L13.0801 21.9667C13.0839 26.3603 16.6488 29.9191 21.0425 29.9154C21.0515 29.9154 21.0605 29.9154 21.0696 29.9153L31.8729 29.9153C36.2849 29.9153 39.927 26.3786 39.927 21.9667L39.927 16.0814L40.9836 16.0814C41.2951 16.5906 41.6558 17.0679 42.0605 17.5066C42.0705 17.5173 42.0807 17.5217 42.0911 17.5321C45.0157 20.4566 49.9576 20.4535 52.8825 17.5282C53.5878 16.8214 54.1164 15.9898 54.5454 14.9155L54.9159 13.991C55.0605 13.6209 55.0168 13.2036 54.7986 12.8716C54.5835 12.5427 54.2207 12.3402 53.8277 12.3299L49.3364 12.3299C49.1707 12.3299 49.1031 12.2606 49.1031 12.0954C49.1031 11.9302 49.1707 11.8609 49.3364 11.8609L53.8277 11.8609C54.2127 11.8716 54.5774 11.6884 54.7986 11.3731C55.0166 11.0586 55.0607 10.6552 54.9159 10.3009L54.5485 9.38645C54.191 8.40272 53.6221 7.50962 52.8816 6.76986C49.957 3.84541 45.0151 3.83979 42.0918 6.76341C41.6472 7.19074 41.2715 7.6843 40.9781 8.22663L39.927 8.22663L39.927 6.46224C39.927 5.66949 39.4747 4.84626 38.7321 4.20392C38.0138 3.57612 37.0943 3.22652 36.1403 3.21832C35.4098 3.22078 34.6964 3.43919 34.0899 3.84612C33.9057 3.58527 33.6897 3.34822 33.4472 3.14047C32.7333 2.51303 31.8176 2.16331 30.8673 2.15499C30.1006 2.15815 29.3538 2.3999 28.7307 2.84668C28.5888 2.6339 28.426 2.43565 28.2448 2.25511C27.5477 1.54829 26.5971 1.14969 25.6043 1.14793ZM3.77712 15.8429C3.4314 15.505 3.14686 15.1098 2.93631 14.6746L5.66368 14.6746C7.0881 14.6746 8.24287 13.5198 8.24287 12.0954C8.24287 10.671 7.0881 9.51623 5.66368 9.51623L2.94381 9.51623C3.18074 9.16452 3.4491 8.72911 3.77619 8.40249C5.7971 6.38146 9.20831 6.39037 11.236 8.40132C11.6496 8.83392 11.9862 9.33404 12.2312 9.88001C12.4205 10.3009 12.8389 10.5716 13.3003 10.5717L16.5971 10.5717L16.5971 13.7367L13.3004 13.7367C12.8411 13.7316 12.422 13.9977 12.2314 14.4156C12.0012 14.9563 11.6683 15.4473 11.251 15.8612C9.22519 17.8869 5.80214 17.868 3.77712 15.8429ZM42.7687 9.88658C42.9984 9.34119 43.3312 8.84517 43.7489 8.42594C45.7748 6.4001 49.1978 6.37431 51.2237 8.40003C51.5419 8.74165 51.8237 9.11563 52.0642 9.51576L49.3364 9.51576C47.912 9.51576 46.7572 10.6705 46.7572 12.0949C46.7572 13.5194 47.912 14.6741 49.3364 14.6741L52.0563 14.6741C51.8441 15.1059 51.5629 15.5003 51.2239 15.8416C49.2031 17.8625 45.7922 17.8805 43.7645 15.8698C43.3515 15.4433 43.0147 14.9491 42.7688 14.4086C42.5772 13.9925 42.1577 13.729 41.6996 13.7367L39.927 13.7367L39.927 10.5714L41.6996 10.5714C42.1599 10.574 42.5787 10.3058 42.7687 9.88658ZM37.1981 5.97723C37.4748 6.21651 37.5823 6.42812 37.5823 6.46224L37.5823 21.9667C37.5823 25.0859 34.9914 27.5706 31.8729 27.5706L21.0696 27.5706C17.9724 27.5908 15.4451 25.0966 15.4249 21.9994C15.4247 21.9885 15.4247 21.9776 15.4247 21.9667L15.4247 16.0814L16.5971 16.0814L16.5971 19.1847C16.5971 19.8322 17.122 20.357 17.7695 20.357C18.417 20.357 18.9418 19.8322 18.9418 19.1847L18.9418 3.83146C18.9418 3.08455 19.624 2.42932 20.3709 2.42932C21.1353 2.4462 21.7482 3.06697 21.7555 3.83146L21.7555 5.28636C21.7555 5.93385 22.2803 6.45872 22.9278 6.45872C23.5753 6.45872 24.1002 5.93385 24.1002 5.28636L24.1002 5.24978C24.2174 5.13782 24.1782 5.01871 24.1782 4.89479C24.2031 4.12607 24.8241 3.5107 25.593 3.49265C26.3673 3.50719 26.997 4.12103 27.0311 4.89479L27.0311 6.35086C27.0243 6.99261 27.5391 7.51841 28.1809 7.52521C28.8112 7.53189 29.3318 7.03493 29.3546 6.40502C29.4286 6.24805 29.4665 6.07653 29.4656 5.90302C29.4843 5.13641 30.1008 4.51917 30.8674 4.49971C31.2591 4.5099 31.6351 4.65633 31.9304 4.9139C32.2071 5.15318 32.3067 5.36479 32.3067 5.39891L32.3067 7.35792C32.3005 7.99697 32.8136 8.52008 33.4527 8.52629C34.055 8.53215 34.561 8.07493 34.6163 7.47515C34.6918 7.3163 34.7302 7.14244 34.7287 6.96658C34.7531 6.19775 35.3737 5.58179 36.1428 5.56327C36.5322 5.57347 36.9056 5.72001 37.1981 5.97723Z"
    fill="#0D2E68" />
</svg>