<svg width="34" height="32" viewBox="0 0 34 32" fill="none" xmlns="http://www.w3.org/2000/svg">
<path d="M33.1186 14.0928V17.4337L30.697 17.6729C30.459 18.7564 30.0288 19.7874 29.4272 20.716L30.9919 22.6252L28.6587 24.9813L26.7687 23.4007C25.8526 24.0137 24.8313 24.4487 23.7573 24.6834L23.5205 27.1596H19.9488V20.1211H20.0572C22.4396 21.2259 25.2576 20.1704 26.3512 17.7636C27.4448 15.3569 26.4 12.5102 24.0176 11.4054C22.7282 10.8075 21.2417 10.8235 19.9653 11.4492H19.9488V4.36694H23.5205L23.7573 6.84309C24.8294 7.08378 25.8497 7.51838 26.7687 8.12585L28.6587 6.54518L30.9624 8.90216L29.3977 10.8114C30.0046 11.7371 30.4353 12.7691 30.6675 13.8545L33.1186 14.0928Z" fill="#00C2FF"/>
<path d="M19.9488 20.1208V22.0064H12.1557L12.0967 22.0011C12.1054 21.8978 12.1097 21.7926 12.1097 21.6866C12.1097 19.6406 10.4679 17.982 8.44257 17.982C6.41723 17.982 4.77543 19.6406 4.77543 21.6866C4.77543 21.7944 4.77977 21.9013 4.78931 22.0064H3.59757C2.09732 22.0062 0.881216 20.7777 0.881042 19.2621V16.9437C0.881129 15.7064 1.70051 14.622 2.88201 14.2958L9.16681 12.5618L12.9242 7.57712C13.6094 6.66832 14.6755 6.13489 15.8063 6.13489H19.9488V20.1208Z" fill="white"/>
<path d="M4.78945 22.0067C4.77991 21.9015 4.77557 21.7947 4.77557 21.6869C4.77557 19.6409 6.41737 17.9823 8.44272 17.9823C10.4681 17.9823 12.1099 19.6409 12.1099 21.6869C12.1099 21.7929 12.1055 21.898 12.0968 22.0014C11.925 24.04 10.1498 25.552 8.13186 25.3784C6.35414 25.2255 4.94332 23.8023 4.78945 22.0067Z" fill="#D4E1F4"/>
<path d="M33.2088 13.2207L31.3624 13.0415C31.1482 12.29 30.8466 11.5667 30.4639 10.8868L31.6316 9.46096C31.9154 9.11434 31.8932 8.60684 31.5803 8.28685L29.2763 5.92987C28.9604 5.60629 28.4518 5.58062 28.1054 5.87064L26.6895 7.05483C26.0175 6.66965 25.3035 6.36455 24.5618 6.14585L24.3836 4.28997C24.3401 3.84232 23.966 3.50192 23.5207 3.50481H20.8163V0.876202C20.8163 0.392276 20.428 0 19.949 0C19.4699 0 19.0816 0.392276 19.0816 0.876202V5.25721H15.8065C14.4057 5.2615 13.0861 5.92225 12.2343 7.04571L8.655 11.7947L2.6468 13.4507C1.08817 13.8827 0.00572449 15.3113 0 16.944V19.2624C0.00988776 21.261 1.61934 22.8744 3.59776 22.8689H4.06569C4.27663 23.7094 4.73025 24.4676 5.36888 25.047C7.10453 26.6713 9.7861 26.6697 11.5198 25.0433C12.1575 24.465 12.6104 23.7081 12.8208 22.8689H19.0816V30.1413C19.0816 30.6253 19.4699 31.0175 19.949 31.0175C20.428 31.0175 20.8163 30.6253 20.8163 30.1413V28.0385H23.5207C23.9677 28.0378 24.3412 27.6946 24.3841 27.2452L24.5621 25.3824C25.3058 25.1664 26.0215 24.8623 26.6944 24.4763L28.1058 25.6564C28.4505 25.9446 28.9556 25.9207 29.272 25.6011L31.6052 23.245C31.9218 22.9254 31.9455 22.4148 31.6601 22.0665L30.4879 20.6362C30.8694 19.9568 31.1714 19.235 31.3879 18.4851L33.21 18.3059C33.6557 18.2627 33.9969 17.8861 34 17.4338V14.0928C33.9969 13.6401 33.655 13.2632 33.2088 13.2207ZM20.8163 12.0443C22.8497 11.3637 25.0444 12.4773 25.7181 14.5315C26.3917 16.5857 25.2894 18.8027 23.256 19.4832C22.4639 19.7483 21.6084 19.7483 20.8164 19.4832L20.8163 12.0443ZM11.2326 21.9278C11.1007 23.4842 9.7449 24.6379 8.20423 24.5047C6.84796 24.3875 5.77167 23.3017 5.65371 21.9317C5.65371 21.9301 5.65371 21.9284 5.65371 21.9268C5.64686 21.851 5.64339 21.7701 5.64339 21.6865C5.64339 20.1244 6.89688 18.8581 8.44319 18.8581C9.9895 18.8581 11.243 20.1244 11.243 21.6865C11.2426 21.7683 11.2393 21.8487 11.2326 21.9278ZM12.9426 21.1165C12.6397 18.6059 10.3795 16.8187 7.89425 17.1247C5.82536 17.3795 4.19501 19.0265 3.94287 21.1165H3.59776C2.57697 21.1229 1.74354 20.2936 1.73469 19.2624V16.944C1.73903 16.1008 2.29873 15.3638 3.1038 15.1414L9.39207 13.4074C9.57646 13.3567 9.73918 13.2462 9.85532 13.0929L13.6134 8.10732C14.1365 7.41784 14.9466 7.01233 15.8065 7.00961H19.0816V21.1165H12.9426ZM32.2653 16.6391L30.6196 16.801C30.2438 16.8378 29.9343 17.1149 29.853 17.4874C29.6359 18.4679 29.2456 19.4008 28.7005 20.2412C28.4951 20.5622 28.5194 20.9806 28.7604 21.2751L29.8212 22.5699L28.6042 23.7976L27.3221 22.7254C27.027 22.4786 26.6065 22.4566 26.2877 22.6714C25.4618 23.2232 24.5415 23.615 23.5737 23.8268C23.205 23.9081 22.9304 24.2207 22.8941 24.6002L22.7332 26.2861H20.8163V21.2994C23.8428 21.9799 26.8424 20.053 27.516 16.9956C28.1896 13.9382 26.2822 10.908 23.2557 10.2276C22.4524 10.047 21.6196 10.047 20.8163 10.2276V5.25721H22.7332L22.8941 6.93444C22.9307 7.31287 23.2056 7.62374 23.5737 7.70295C24.5439 7.92122 25.4671 8.31463 26.299 8.86418C26.6171 9.07114 27.0313 9.04582 27.3225 8.80171L28.6003 7.73274L29.7947 8.95434L28.7302 10.253C28.4858 10.5512 28.4642 10.976 28.6767 11.298C29.2231 12.1326 29.6109 13.0626 29.8204 14.0405C29.9034 14.414 30.2148 14.691 30.5919 14.7271L32.2659 14.8892L32.2653 16.6391Z" fill="#083863"/>
</svg>
